M48
;Layer_Color=9474304
;FILE_FORMAT=2:4
INCH,TZ
;TYPE=PLATED
T1F00S00C0.0280
T2F00S00C0.0354
T3F00S00C0.0453
T4F00S00C0.0630
T5F00S00C0.1280
;TYPE=NON_PLATED
T6F00S00C0.1280
%
T01
X65650Y17800
X64500Y19450
X64800Y20250
X67800Y20700
X68300Y19900
T02
X66000Y12500
Y13300
Y14100
Y14900
X66700Y15300
Y14500
Y13700
Y12900
Y19100
Y19900
Y20700
Y21500
X66000Y21100
Y20300
Y19500
Y18700
T03
X61650Y13728
Y14819
X62650Y15364
Y14274
Y13183
Y16455
Y17545
Y18636
Y19726
Y20817
X61650Y20272
Y19181
Y18091
Y17000
Y15909
T04
X66350Y10700
Y23300
T05
X62150Y10441
Y23559
T06
X67700Y11400
Y22600
M30
