G04*
G04 #@! TF.GenerationSoftware,Altium Limited,Altium Designer,20.2.8 (258)*
G04*
G04 Layer_Color=32896*
%FSLAX25Y25*%
%MOIN*%
G70*
G04*
G04 #@! TF.SameCoordinates,CC9CDF83-AFDD-4123-BE52-42B745630FB9*
G04*
G04*
G04 #@! TF.FilePolarity,Positive*
G04*
G01*
G75*
%ADD12C,0.00500*%
%ADD13C,0.01000*%
%ADD38C,0.00591*%
G36*
X582598Y169852D02*
X583583Y168148D01*
X581614D01*
X582598Y169852D01*
D02*
G37*
D12*
X586293Y177268D02*
X585793D01*
X586293D01*
X601499Y160500D02*
Y159500D01*
X600999Y159001D01*
X599000D01*
X598500Y159500D01*
Y160500D01*
X599000Y161000D01*
X600999D01*
X601499Y160500D01*
X598500Y161999D02*
X601499D01*
X598500Y163999D01*
X601499D01*
X608000Y154501D02*
X607000D01*
X606500Y155001D01*
Y157000D01*
X607000Y157500D01*
X608000D01*
X608499Y157000D01*
Y155001D01*
X608000Y154501D01*
X609499Y157500D02*
Y154501D01*
X611498Y157500D01*
Y154501D01*
D13*
X597000Y171775D02*
X601000Y174776D01*
X600000Y169775D02*
X603000Y171775D01*
X597000Y174776D02*
X603000D01*
X597000Y169775D02*
X603000D01*
X597000D02*
X603000Y173775D01*
X597000Y157775D02*
X603000D01*
X597000D02*
Y176776D01*
X603000D01*
Y157775D02*
Y176776D01*
X605000Y154776D02*
Y179776D01*
X595000Y154776D02*
Y179776D01*
Y154776D02*
X596665D01*
X603335D02*
X605000D01*
X595000Y179776D02*
X596531D01*
X603469D02*
X605000D01*
X695497Y240501D02*
Y242500D01*
X694498Y243500D01*
X690499D01*
X689499Y242500D01*
Y240501D01*
X690499Y239501D01*
X694498D01*
X695497Y240501D01*
X693498Y237502D02*
X690499D01*
X689499Y236502D01*
Y233503D01*
X693498D01*
X694498Y230504D02*
X693498D01*
Y231504D01*
Y229504D01*
Y230504D01*
X690499D01*
X689499Y229504D01*
X693498Y226505D02*
Y225506D01*
X692498D01*
Y226505D01*
X693498D01*
X690499D02*
Y225506D01*
X689499D01*
Y226505D01*
X690499D01*
X694498Y214509D02*
X693498D01*
Y215509D01*
Y213510D01*
Y214509D01*
X690499D01*
X689499Y213510D01*
Y209511D02*
Y207512D01*
X690499Y206512D01*
X692498D01*
X693498Y207512D01*
Y209511D01*
X692498Y210511D01*
X690499D01*
X689499Y209511D01*
Y198515D02*
X693498D01*
X695497Y196515D01*
X693498Y194516D01*
X689499D01*
X692498D01*
Y198515D01*
X695497Y192517D02*
X689499D01*
Y189517D01*
X690499Y188518D01*
X694498D01*
X695497Y189517D01*
Y192517D01*
X694498Y182520D02*
X695497Y183519D01*
Y185519D01*
X694498Y186518D01*
X690499D01*
X689499Y185519D01*
Y183519D01*
X690499Y182520D01*
X688500Y179521D02*
X689499Y178521D01*
X690499D01*
Y179521D01*
X689499D01*
Y178521D01*
X688500Y179521D01*
X687500Y180520D01*
X695497Y168524D02*
Y166525D01*
Y167525D01*
X689499D01*
Y168524D01*
Y166525D01*
Y163526D02*
X693498D01*
Y160527D01*
X692498Y159527D01*
X689499D01*
X693498Y157528D02*
Y156528D01*
X692498D01*
Y157528D01*
X693498D01*
X690499D02*
Y156528D01*
X689499D01*
Y157528D01*
X690499D01*
X689499Y145532D02*
X694498D01*
X692498D01*
Y146531D01*
Y144532D01*
Y145532D01*
X694498D01*
X695497Y144532D01*
X689499Y140533D02*
Y138534D01*
X690499Y137534D01*
X692498D01*
X693498Y138534D01*
Y140533D01*
X692498Y141533D01*
X690499D01*
X689499Y140533D01*
X693498Y135535D02*
X689499D01*
X691499D01*
X692498Y134535D01*
X693498Y133536D01*
Y132536D01*
X689499Y129537D02*
X693498D01*
Y128537D01*
X692498Y127538D01*
X689499D01*
X692498D01*
X693498Y126538D01*
X692498Y125538D01*
X689499D01*
X695497Y117541D02*
Y115541D01*
Y116541D01*
X689499D01*
Y117541D01*
Y115541D01*
Y112542D02*
X693498D01*
Y109543D01*
X692498Y108544D01*
X689499D01*
X693498Y106544D02*
X689499Y104545D01*
X693498Y102546D01*
X652998Y112001D02*
Y117999D01*
X649999D01*
X649000Y116999D01*
Y115000D01*
X649999Y114000D01*
X652998D01*
X650999D02*
X649000Y112001D01*
X643002Y117999D02*
X647000D01*
Y115000D01*
X645001Y116000D01*
X644001D01*
X643002Y115000D01*
Y113001D01*
X644001Y112001D01*
X646001D01*
X647000Y113001D01*
X602999Y141001D02*
X603999Y140001D01*
Y138002D01*
X602999Y137002D01*
X602000D01*
X601000Y138002D01*
Y140001D01*
X600000Y141001D01*
X599001D01*
X598001Y140001D01*
Y138002D01*
X599001Y137002D01*
X603999Y143000D02*
X598001D01*
X600000Y145000D01*
X598001Y146999D01*
X603999D01*
X598001Y148998D02*
Y150998D01*
Y149998D01*
X603999D01*
X602999Y148998D01*
X584999Y205998D02*
X579001D01*
Y202999D01*
X580001Y202000D01*
X582000D01*
X583000Y202999D01*
Y205998D01*
Y203999D02*
X584999Y202000D01*
X579001Y196002D02*
X580001Y198001D01*
X582000Y200000D01*
X583999D01*
X584999Y199001D01*
Y197001D01*
X583999Y196002D01*
X583000D01*
X582000Y197001D01*
Y200000D01*
X602002Y201499D02*
Y195501D01*
X605001D01*
X606000Y196501D01*
Y198500D01*
X605001Y199500D01*
X602002D01*
X604001D02*
X606000Y201499D01*
X608000Y195501D02*
X611998D01*
Y196501D01*
X608000Y200499D01*
Y201499D01*
X579001Y153001D02*
Y158999D01*
X582000D01*
X583000Y157999D01*
Y154001D01*
X582000Y153001D01*
X579001D01*
X584999Y158999D02*
X586999D01*
X585999D01*
Y153001D01*
X584999Y154001D01*
X635998Y124001D02*
Y129999D01*
X632999D01*
X632000Y128999D01*
Y127000D01*
X632999Y126000D01*
X635998D01*
X633999D02*
X632000Y124001D01*
X627001D02*
Y129999D01*
X630000Y127000D01*
X626002D01*
X649998Y150501D02*
Y156499D01*
X646999D01*
X646000Y155499D01*
Y153500D01*
X646999Y152500D01*
X649998D01*
X647999D02*
X646000Y150501D01*
X644000Y155499D02*
X643001Y156499D01*
X641001D01*
X640002Y155499D01*
Y154500D01*
X641001Y153500D01*
X642001D01*
X641001D01*
X640002Y152500D01*
Y151501D01*
X641001Y150501D01*
X643001D01*
X644000Y151501D01*
X671498Y165501D02*
Y171499D01*
X668499D01*
X667500Y170499D01*
Y168500D01*
X668499Y167500D01*
X671498D01*
X669499D02*
X667500Y165501D01*
X661502D02*
X665500D01*
X661502Y169500D01*
Y170499D01*
X662501Y171499D01*
X664501D01*
X665500Y170499D01*
X651055Y178800D02*
Y184798D01*
X648056D01*
X647056Y183798D01*
Y181799D01*
X648056Y180799D01*
X651055D01*
X649056D02*
X647056Y178800D01*
X645057D02*
X643058D01*
X644057D01*
Y184798D01*
X645057Y183798D01*
D38*
X645000Y158457D02*
Y165543D01*
X651693Y164756D02*
Y165543D01*
X638307D02*
X651693D01*
X638307Y164756D02*
Y165543D01*
X651693Y158457D02*
Y159244D01*
X638307Y158457D02*
X651693D01*
X638307D02*
Y159244D01*
X652957Y167000D02*
X660043D01*
X652957Y173693D02*
X653744D01*
X652957Y160307D02*
Y173693D01*
Y160307D02*
X653744D01*
X659256Y173693D02*
X660043D01*
Y160307D02*
Y173693D01*
X659256Y160307D02*
X660043D01*
X579457Y193693D02*
X580244D01*
X579457Y180307D02*
Y193693D01*
Y180307D02*
X580244D01*
X585756Y193693D02*
X586543D01*
Y180307D02*
Y193693D01*
X585756Y180307D02*
X586543D01*
X579457Y187000D02*
X586543D01*
X587252Y194957D02*
Y195744D01*
Y194957D02*
X600638D01*
Y195744D01*
X587252Y201256D02*
Y202043D01*
X600638D01*
Y201256D02*
Y202043D01*
X593945Y194957D02*
Y202043D01*
X640362Y102957D02*
Y103744D01*
Y102957D02*
X653748D01*
Y103744D01*
X640362Y109256D02*
Y110043D01*
X653748D01*
Y109256D02*
Y110043D01*
X647055Y102957D02*
Y110043D01*
X624807Y115457D02*
Y116244D01*
Y115457D02*
X638193D01*
Y116244D01*
X624807Y121756D02*
Y122543D01*
X638193D01*
Y121756D02*
Y122543D01*
X631500Y115457D02*
Y122543D01*
X586043Y170787D02*
Y175693D01*
X584469Y177268D02*
X586043Y175693D01*
X581516Y177268D02*
X583484D01*
X578957Y170787D02*
Y175693D01*
X580532Y177268D01*
X586043Y161520D02*
Y167638D01*
X578957Y161520D02*
X586043D01*
X578957D02*
Y167638D01*
X583484Y177268D02*
X584469D01*
X580532D02*
X581516D01*
X651748Y174756D02*
Y175543D01*
X638362D02*
X651748D01*
X638362Y174756D02*
X638362Y175543D01*
X651748Y168457D02*
X651748Y169244D01*
X638362Y168457D02*
X651748D01*
X638362D02*
Y169244D01*
X645055Y168457D02*
X645055Y175543D01*
M02*
