G04*
G04 #@! TF.GenerationSoftware,Altium Limited,Altium Designer,20.2.8 (258)*
G04*
G04 Layer_Physical_Order=2*
G04 Layer_Color=16711680*
%FSLAX25Y25*%
%MOIN*%
G70*
G04*
G04 #@! TF.SameCoordinates,CC9CDF83-AFDD-4123-BE52-42B745630FB9*
G04*
G04*
G04 #@! TF.FilePolarity,Positive*
G04*
G01*
G75*
%ADD13C,0.01000*%
%ADD22R,0.05512X0.05512*%
%ADD23C,0.05512*%
%ADD24C,0.12795*%
%ADD25C,0.09449*%
%ADD26C,0.16795*%
%ADD27R,0.06791X0.06791*%
%ADD28C,0.06791*%
%ADD29C,0.05000*%
%ADD30R,0.04528X0.05315*%
%ADD31R,0.05315X0.04528*%
%ADD32R,0.05118X0.09055*%
%ADD33R,0.04724X0.04331*%
G36*
X700000Y92000D02*
X575500D01*
Y248000D01*
X700000D01*
Y92000D01*
D02*
G37*
%LPC*%
G36*
X621500Y245034D02*
X619658Y244852D01*
X617886Y244315D01*
X616254Y243442D01*
X614823Y242268D01*
X613648Y240837D01*
X612776Y239204D01*
X612238Y237433D01*
X612057Y235591D01*
X612238Y233748D01*
X612776Y231977D01*
X613648Y230344D01*
X614823Y228913D01*
X616254Y227739D01*
X617886Y226866D01*
X619658Y226329D01*
X621500Y226147D01*
X623342Y226329D01*
X625114Y226866D01*
X626746Y227739D01*
X628177Y228913D01*
X629352Y230344D01*
X630224Y231977D01*
X630762Y233748D01*
X630943Y235591D01*
X630762Y237433D01*
X630224Y239204D01*
X629352Y240837D01*
X628177Y242268D01*
X626746Y243442D01*
X625114Y244315D01*
X623342Y244852D01*
X621500Y245034D01*
D02*
G37*
G36*
X677000Y233433D02*
X675550Y233291D01*
X674155Y232868D01*
X672870Y232181D01*
X671744Y231256D01*
X670819Y230130D01*
X670132Y228845D01*
X669709Y227450D01*
X669567Y226000D01*
X669709Y224550D01*
X670132Y223155D01*
X670819Y221870D01*
X671744Y220744D01*
X672870Y219819D01*
X674155Y219132D01*
X675550Y218709D01*
X677000Y218567D01*
X678450Y218709D01*
X679845Y219132D01*
X681130Y219819D01*
X682256Y220744D01*
X683181Y221870D01*
X683868Y223155D01*
X684291Y224550D01*
X684433Y226000D01*
X684291Y227450D01*
X683868Y228845D01*
X683181Y230130D01*
X682256Y231256D01*
X681130Y232181D01*
X679845Y232868D01*
X678450Y233291D01*
X677000Y233433D01*
D02*
G37*
G36*
X663500Y238774D02*
X662006Y238577D01*
X660613Y238000D01*
X659417Y237083D01*
X658500Y235887D01*
X657923Y234494D01*
X657726Y233000D01*
X657923Y231506D01*
X658500Y230113D01*
X659417Y228917D01*
X660613Y228000D01*
X662006Y227423D01*
X663500Y227226D01*
X664994Y227423D01*
X666387Y228000D01*
X667583Y228917D01*
X668500Y230113D01*
X669077Y231506D01*
X669274Y233000D01*
X669077Y234494D01*
X668845Y235055D01*
X669123Y235471D01*
X683116D01*
X686971Y231616D01*
Y199485D01*
X686471Y199453D01*
X686410Y199914D01*
X686057Y200765D01*
X685496Y201496D01*
X684765Y202057D01*
X683914Y202410D01*
X683000Y202530D01*
X682086Y202410D01*
X681235Y202057D01*
X680504Y201496D01*
X679943Y200765D01*
X679638Y200029D01*
X670639D01*
X670281Y200894D01*
X669679Y201679D01*
X668894Y202281D01*
X667980Y202659D01*
X667307Y202748D01*
Y203252D01*
X667980Y203341D01*
X668894Y203719D01*
X669679Y204321D01*
X670281Y205106D01*
X670432Y205471D01*
X674845D01*
X674943Y205235D01*
X675504Y204504D01*
X676235Y203943D01*
X677086Y203590D01*
X678000Y203470D01*
X678914Y203590D01*
X679765Y203943D01*
X680496Y204504D01*
X681057Y205235D01*
X681410Y206086D01*
X681530Y207000D01*
X681410Y207914D01*
X681057Y208765D01*
X680496Y209496D01*
X679765Y210057D01*
X678914Y210410D01*
X678000Y210530D01*
X677086Y210410D01*
X676235Y210057D01*
X675504Y209496D01*
X674943Y208765D01*
X674845Y208529D01*
X670432D01*
X670281Y208894D01*
X669679Y209679D01*
X668894Y210281D01*
X667980Y210659D01*
X667336Y210744D01*
X667369Y211244D01*
X670756D01*
Y218756D01*
X663244D01*
Y213720D01*
X662771Y213559D01*
X662679Y213679D01*
X661894Y214281D01*
X660981Y214659D01*
X660000Y214788D01*
X659020Y214659D01*
X658106Y214281D01*
X657321Y213679D01*
X656719Y212894D01*
X656341Y211981D01*
X656212Y211000D01*
X656341Y210019D01*
X656719Y209106D01*
X657321Y208321D01*
X658106Y207719D01*
X659020Y207341D01*
X659693Y207252D01*
Y206748D01*
X659020Y206659D01*
X658106Y206281D01*
X657321Y205679D01*
X656719Y204894D01*
X656361Y204029D01*
X651155D01*
X651057Y204265D01*
X650496Y204996D01*
X649765Y205557D01*
X648914Y205910D01*
X648000Y206030D01*
X647086Y205910D01*
X646235Y205557D01*
X645504Y204996D01*
X644943Y204265D01*
X644590Y203414D01*
X644470Y202500D01*
X644590Y201586D01*
X644943Y200735D01*
X645504Y200004D01*
X646235Y199443D01*
X647086Y199090D01*
X648000Y198970D01*
X648914Y199090D01*
X649765Y199443D01*
X650496Y200004D01*
X651057Y200735D01*
X651155Y200971D01*
X656823D01*
X657321Y200321D01*
X658106Y199719D01*
X659020Y199341D01*
X659693Y199252D01*
Y198748D01*
X659020Y198659D01*
X658106Y198281D01*
X657321Y197679D01*
X656719Y196894D01*
X656361Y196029D01*
X648155D01*
X648057Y196265D01*
X647496Y196996D01*
X646765Y197557D01*
X645914Y197910D01*
X645000Y198030D01*
X644086Y197910D01*
X643235Y197557D01*
X642504Y196996D01*
X641943Y196265D01*
X641590Y195414D01*
X641470Y194500D01*
X641590Y193586D01*
X641943Y192735D01*
X642504Y192004D01*
X643235Y191443D01*
X644086Y191090D01*
X645000Y190970D01*
X645914Y191090D01*
X646765Y191443D01*
X647496Y192004D01*
X648057Y192735D01*
X648155Y192971D01*
X656823D01*
X657321Y192321D01*
X658106Y191719D01*
X659020Y191341D01*
X659693Y191252D01*
Y190748D01*
X659020Y190659D01*
X658106Y190281D01*
X657321Y189679D01*
X656719Y188894D01*
X656341Y187980D01*
X656212Y187000D01*
X656341Y186020D01*
X656719Y185106D01*
X657321Y184321D01*
X658106Y183719D01*
X658971Y183361D01*
Y181081D01*
X658522Y180860D01*
X658265Y181057D01*
X657414Y181410D01*
X656500Y181530D01*
X655586Y181410D01*
X654735Y181057D01*
X654004Y180496D01*
X653443Y179765D01*
X653090Y178914D01*
X652970Y178000D01*
X653090Y177086D01*
X653443Y176235D01*
X654004Y175504D01*
X654735Y174943D01*
X654971Y174845D01*
Y173709D01*
X652843D01*
Y173529D01*
X651764D01*
Y175657D01*
X645374D01*
X645236Y175657D01*
X644874D01*
X644736Y175657D01*
X640116D01*
X635529Y180244D01*
Y202000D01*
X635413Y202585D01*
X635081Y203081D01*
X634365Y203798D01*
X633869Y204130D01*
X633284Y204246D01*
X629429D01*
X629259Y204746D01*
X629635Y205034D01*
X630340Y205953D01*
X630783Y207022D01*
X630934Y208169D01*
X630783Y209317D01*
X630340Y210386D01*
X629635Y211304D01*
X628717Y212009D01*
X627647Y212452D01*
X626500Y212603D01*
X625352Y212452D01*
X624283Y212009D01*
X623365Y211304D01*
X622660Y210386D01*
X622218Y209317D01*
X622066Y208169D01*
X622218Y207022D01*
X622660Y205953D01*
X623365Y205034D01*
X623741Y204746D01*
X623571Y204246D01*
X620624D01*
X620340Y204933D01*
X619635Y205852D01*
X618717Y206556D01*
X617648Y206999D01*
X616500Y207150D01*
X615352Y206999D01*
X614283Y206556D01*
X613365Y205852D01*
X612660Y204933D01*
X612218Y203864D01*
X612066Y202716D01*
X612218Y201569D01*
X612660Y200500D01*
X613365Y199582D01*
X614283Y198877D01*
X615352Y198434D01*
X616500Y198283D01*
X617648Y198434D01*
X618717Y198877D01*
X619635Y199582D01*
X620340Y200500D01*
X620624Y201187D01*
X623571D01*
X623741Y200687D01*
X623365Y200399D01*
X622660Y199481D01*
X622218Y198411D01*
X622066Y197264D01*
X622218Y196116D01*
X622660Y195047D01*
X623365Y194129D01*
X624283Y193424D01*
X625352Y192981D01*
X626500Y192830D01*
X627647Y192981D01*
X628717Y193424D01*
X629635Y194129D01*
X630340Y195047D01*
X630783Y196116D01*
X630934Y197264D01*
X630783Y198411D01*
X630340Y199481D01*
X629635Y200399D01*
X629259Y200687D01*
X629429Y201187D01*
X632471D01*
Y179610D01*
X632587Y179025D01*
X632919Y178529D01*
X638346Y173101D01*
Y168342D01*
X644736D01*
X644874Y168342D01*
X645236D01*
X645374Y168342D01*
X651764D01*
Y170471D01*
X652843D01*
Y167181D01*
X652843Y167181D01*
Y166819D01*
X652843D01*
X652843Y166681D01*
Y163529D01*
X651709D01*
Y165657D01*
X645319D01*
X645181Y165657D01*
X644819D01*
X644681Y165657D01*
X639939D01*
X639791Y165687D01*
X639644Y165657D01*
X638291D01*
Y164305D01*
X638262Y164157D01*
X638291Y164010D01*
Y160384D01*
X638262Y160236D01*
Y145925D01*
X628563Y136226D01*
X622104D01*
Y127435D01*
X630896D01*
Y134233D01*
X640873Y144210D01*
X641204Y144706D01*
X641321Y145291D01*
Y158343D01*
X644681D01*
X644819Y158343D01*
X645181D01*
X645319Y158343D01*
X651709D01*
Y160471D01*
X652843D01*
Y160291D01*
X660157D01*
Y163789D01*
X661819D01*
X662404Y163906D01*
X662900Y164237D01*
X665667Y167004D01*
X665999Y167500D01*
X666115Y168086D01*
Y174640D01*
X665999Y175225D01*
X665667Y175721D01*
X662029Y179359D01*
Y183823D01*
X662679Y184321D01*
X663281Y185106D01*
X663659Y186020D01*
X663788Y187000D01*
X663659Y187980D01*
X663467Y188444D01*
X663283Y188889D01*
X663642Y189067D01*
X663988Y188755D01*
X664003Y188736D01*
X664321Y188321D01*
X665106Y187719D01*
X666019Y187341D01*
X667000Y187212D01*
X667980Y187341D01*
X668894Y187719D01*
X669679Y188321D01*
X670281Y189106D01*
X670659Y190020D01*
X670788Y191000D01*
X670659Y191981D01*
X670281Y192894D01*
X669679Y193679D01*
X668894Y194281D01*
X667980Y194659D01*
X667307Y194748D01*
Y195252D01*
X667980Y195341D01*
X668894Y195719D01*
X669679Y196321D01*
X670177Y196971D01*
X680146D01*
X680504Y196504D01*
X681235Y195943D01*
X682086Y195590D01*
X683000Y195470D01*
X683914Y195590D01*
X684765Y195943D01*
X685496Y196504D01*
X686057Y197235D01*
X686410Y198086D01*
X686471Y198547D01*
X686971Y198515D01*
Y141133D01*
X662419Y116581D01*
X662087Y116085D01*
X661971Y115500D01*
Y112563D01*
X660613Y112000D01*
X659417Y111083D01*
X658500Y109887D01*
X657937Y108529D01*
X653764D01*
Y110158D01*
X647374D01*
X647236Y110158D01*
X646874D01*
X646736Y110158D01*
X645140D01*
Y110335D01*
X645023Y110920D01*
X644692Y111416D01*
X638209Y117899D01*
Y118500D01*
X635445D01*
Y115342D01*
X636440D01*
X641163Y110619D01*
X640971Y110158D01*
X640346D01*
Y107000D01*
X643610D01*
Y106500D01*
X644110D01*
Y102842D01*
X646736D01*
X646874Y102842D01*
X647236D01*
X647374Y102842D01*
X653764D01*
Y105471D01*
X657937D01*
X658500Y104113D01*
X659417Y102917D01*
X660613Y102000D01*
X662006Y101423D01*
X663500Y101226D01*
X664994Y101423D01*
X666387Y102000D01*
X667583Y102917D01*
X668500Y104113D01*
X669077Y105506D01*
X669274Y107000D01*
X669077Y108494D01*
X668500Y109887D01*
X667583Y111083D01*
X666387Y112000D01*
X665029Y112563D01*
Y114866D01*
X689581Y139419D01*
X689913Y139915D01*
X690029Y140500D01*
Y232250D01*
X689913Y232835D01*
X689581Y233331D01*
X684831Y238081D01*
X684335Y238413D01*
X683750Y238529D01*
X667500D01*
X666915Y238413D01*
X666419Y238081D01*
X666352Y238015D01*
X664994Y238577D01*
X663500Y238774D01*
D02*
G37*
G36*
X603811Y206029D02*
X594000D01*
X593415Y205913D01*
X592918Y205581D01*
X589495Y202157D01*
X587236D01*
Y199899D01*
X582041Y194704D01*
X581710Y194208D01*
X581610Y193709D01*
X579343D01*
Y192931D01*
X579285Y192893D01*
X578953Y192396D01*
X578837Y191811D01*
X578953Y191226D01*
X579285Y190730D01*
X579343Y190691D01*
Y187319D01*
X579343Y187181D01*
Y186819D01*
X579343Y186681D01*
Y184364D01*
X579193Y184140D01*
X579077Y183555D01*
X579193Y182970D01*
X579343Y182747D01*
Y180291D01*
X580971D01*
Y176299D01*
X579138D01*
Y169968D01*
X585862D01*
Y176299D01*
X584029D01*
Y180291D01*
X586657D01*
Y186681D01*
X586657Y186819D01*
Y187181D01*
X586657Y187319D01*
Y193709D01*
X586025D01*
X585834Y194171D01*
X586774Y195111D01*
X587236Y194920D01*
Y194843D01*
X593626D01*
X593764Y194843D01*
X594126D01*
X594264Y194843D01*
X595860D01*
Y188803D01*
X595977Y188218D01*
X596308Y187722D01*
X596441Y187589D01*
Y185754D01*
X596000D01*
X595415Y185637D01*
X594919Y185306D01*
X592860Y183247D01*
X592528Y182751D01*
X592412Y182166D01*
Y175575D01*
X584874Y168037D01*
X584141D01*
X584114Y168032D01*
X579138D01*
Y161701D01*
X585862D01*
Y165049D01*
X586093Y165094D01*
X586589Y165426D01*
X595022Y173860D01*
X595354Y174356D01*
X595470Y174941D01*
Y181532D01*
X595979Y182041D01*
X596441Y181849D01*
Y178697D01*
X603559D01*
Y179125D01*
X604021Y179316D01*
X609523Y173814D01*
X610019Y173483D01*
X610604Y173366D01*
X612912D01*
X613159Y172866D01*
X612660Y172217D01*
X612218Y171148D01*
X612066Y170000D01*
X612218Y168852D01*
X612660Y167783D01*
X613365Y166865D01*
X614283Y166160D01*
X615352Y165717D01*
X616500Y165566D01*
X617648Y165717D01*
X618717Y166160D01*
X619635Y166865D01*
X620340Y167783D01*
X620405Y167941D01*
X620945Y167939D01*
X622502Y166382D01*
X622218Y165695D01*
X622066Y164547D01*
X622218Y163400D01*
X622660Y162330D01*
X623365Y161412D01*
X624283Y160708D01*
X625352Y160265D01*
X626500Y160114D01*
X627647Y160265D01*
X628717Y160708D01*
X629635Y161412D01*
X630340Y162330D01*
X630783Y163400D01*
X630934Y164547D01*
X630783Y165695D01*
X630340Y166764D01*
X629635Y167682D01*
X628717Y168387D01*
X627647Y168830D01*
X626500Y168981D01*
X625352Y168830D01*
X624665Y168545D01*
X623489Y169721D01*
Y171464D01*
X623459Y171615D01*
X623913Y171897D01*
X624283Y171613D01*
X625352Y171170D01*
X626500Y171019D01*
X627647Y171170D01*
X628717Y171613D01*
X629635Y172318D01*
X630340Y173236D01*
X630783Y174305D01*
X630934Y175453D01*
X630783Y176600D01*
X630340Y177670D01*
X629635Y178588D01*
X628717Y179292D01*
X627647Y179735D01*
X626500Y179886D01*
X625352Y179735D01*
X624283Y179292D01*
X623365Y178588D01*
X622660Y177670D01*
X622218Y176600D01*
X622066Y175453D01*
X622218Y174305D01*
X622380Y173914D01*
X621956Y173631D01*
X619609Y175977D01*
X619113Y176309D01*
X618528Y176425D01*
X618476D01*
X618377Y176925D01*
X618717Y177066D01*
X619635Y177770D01*
X620340Y178689D01*
X620783Y179758D01*
X620934Y180905D01*
X620783Y182053D01*
X620340Y183122D01*
X619635Y184040D01*
X618717Y184745D01*
X617648Y185188D01*
X616500Y185339D01*
X615352Y185188D01*
X614283Y184745D01*
X613365Y184040D01*
X612660Y183122D01*
X612218Y182053D01*
X612066Y180905D01*
X612218Y179758D01*
X612660Y178689D01*
X613365Y177770D01*
X614283Y177066D01*
X614623Y176925D01*
X614524Y176425D01*
X611238D01*
X603559Y184104D01*
Y189752D01*
X598919D01*
Y194843D01*
X600654D01*
Y202157D01*
X594527D01*
X594349Y202589D01*
X594661Y202971D01*
X603177D01*
X612502Y193646D01*
X612218Y192958D01*
X612066Y191811D01*
X612218Y190664D01*
X612660Y189594D01*
X613365Y188676D01*
X614283Y187971D01*
X615352Y187529D01*
X616500Y187377D01*
X617648Y187529D01*
X618717Y187971D01*
X619635Y188676D01*
X620340Y189594D01*
X620783Y190664D01*
X620934Y191811D01*
X620783Y192958D01*
X620340Y194028D01*
X619635Y194946D01*
X618717Y195651D01*
X617648Y196094D01*
X616500Y196245D01*
X615352Y196094D01*
X614665Y195809D01*
X604892Y205581D01*
X604396Y205913D01*
X603811Y206029D01*
D02*
G37*
G36*
X626500Y190792D02*
X625352Y190641D01*
X624283Y190198D01*
X623365Y189493D01*
X622660Y188575D01*
X622218Y187506D01*
X622066Y186358D01*
X622218Y185211D01*
X622660Y184142D01*
X623365Y183223D01*
X624283Y182519D01*
X625352Y182076D01*
X626500Y181925D01*
X627647Y182076D01*
X628717Y182519D01*
X629635Y183223D01*
X630340Y184142D01*
X630783Y185211D01*
X630934Y186358D01*
X630783Y187506D01*
X630340Y188575D01*
X629635Y189493D01*
X628717Y190198D01*
X627647Y190641D01*
X626500Y190792D01*
D02*
G37*
G36*
X670756Y156756D02*
X663244D01*
Y151720D01*
X662771Y151559D01*
X662679Y151679D01*
X661894Y152281D01*
X660981Y152659D01*
X660000Y152788D01*
X659020Y152659D01*
X658106Y152281D01*
X657321Y151679D01*
X656719Y150894D01*
X656341Y149980D01*
X656212Y149000D01*
X656341Y148020D01*
X656719Y147106D01*
X657321Y146321D01*
X658106Y145719D01*
X659020Y145341D01*
X659693Y145252D01*
Y144748D01*
X659020Y144659D01*
X658106Y144281D01*
X657321Y143679D01*
X656719Y142894D01*
X656341Y141981D01*
X656212Y141000D01*
X656341Y140020D01*
X656719Y139106D01*
X657321Y138321D01*
X658106Y137719D01*
X659020Y137341D01*
X659693Y137252D01*
Y136748D01*
X659020Y136659D01*
X658106Y136281D01*
X657321Y135679D01*
X656719Y134894D01*
X656341Y133981D01*
X656212Y133000D01*
X656341Y132019D01*
X656719Y131106D01*
X657321Y130321D01*
X658106Y129719D01*
X659020Y129341D01*
X659693Y129252D01*
Y128748D01*
X659020Y128659D01*
X658106Y128281D01*
X657321Y127679D01*
X656719Y126894D01*
X656341Y125980D01*
X656212Y125000D01*
X656341Y124020D01*
X656719Y123106D01*
X657321Y122321D01*
X658106Y121719D01*
X659020Y121341D01*
X660000Y121212D01*
X660981Y121341D01*
X661894Y121719D01*
X662679Y122321D01*
X663281Y123106D01*
X663659Y124020D01*
X663788Y125000D01*
X663659Y125980D01*
X663467Y126444D01*
X663283Y126889D01*
X663642Y127067D01*
X663988Y126755D01*
X664003Y126736D01*
X664321Y126321D01*
X665106Y125719D01*
X666019Y125341D01*
X667000Y125212D01*
X667980Y125341D01*
X668894Y125719D01*
X669679Y126321D01*
X670281Y127106D01*
X670659Y128019D01*
X670788Y129000D01*
X670659Y129981D01*
X670281Y130894D01*
X669679Y131679D01*
X668894Y132281D01*
X667980Y132659D01*
X667307Y132748D01*
Y133252D01*
X667980Y133341D01*
X668894Y133719D01*
X669679Y134321D01*
X670281Y135106D01*
X670659Y136020D01*
X670788Y137000D01*
X670659Y137980D01*
X670281Y138894D01*
X669679Y139679D01*
X668894Y140281D01*
X667980Y140659D01*
X667307Y140748D01*
Y141252D01*
X667980Y141341D01*
X668894Y141719D01*
X669679Y142321D01*
X670281Y143106D01*
X670659Y144019D01*
X670788Y145000D01*
X670659Y145981D01*
X670281Y146894D01*
X669679Y147679D01*
X668894Y148281D01*
X667980Y148659D01*
X667336Y148744D01*
X667369Y149244D01*
X670756D01*
Y156756D01*
D02*
G37*
G36*
X616500Y163528D02*
X615352Y163377D01*
X614283Y162934D01*
X613365Y162230D01*
X612660Y161311D01*
X612218Y160242D01*
X612066Y159095D01*
X612218Y157947D01*
X612660Y156878D01*
X613365Y155959D01*
X613926Y155529D01*
X613756Y155029D01*
X611000D01*
X610415Y154913D01*
X609919Y154581D01*
X606642Y151305D01*
X603559D01*
Y155303D01*
X596441D01*
Y144248D01*
X603559D01*
Y148246D01*
X607275D01*
X607861Y148363D01*
X608357Y148694D01*
X611633Y151971D01*
X613430D01*
X613591Y151497D01*
X613365Y151324D01*
X612660Y150406D01*
X612218Y149337D01*
X612066Y148189D01*
X612218Y147041D01*
X612660Y145972D01*
X613365Y145054D01*
X614283Y144349D01*
X615352Y143906D01*
X616500Y143755D01*
X617648Y143906D01*
X618717Y144349D01*
X619635Y145054D01*
X620340Y145972D01*
X620783Y147041D01*
X620934Y148189D01*
X620783Y149337D01*
X620340Y150406D01*
X619635Y151324D01*
X619409Y151497D01*
X619570Y151971D01*
X622434D01*
X622660Y151425D01*
X623365Y150507D01*
X624283Y149802D01*
X625352Y149359D01*
X626500Y149208D01*
X627647Y149359D01*
X628717Y149802D01*
X629635Y150507D01*
X630340Y151425D01*
X630783Y152494D01*
X630934Y153642D01*
X630783Y154789D01*
X630340Y155859D01*
X629635Y156777D01*
X628717Y157481D01*
X627647Y157924D01*
X626500Y158075D01*
X625352Y157924D01*
X624283Y157481D01*
X623365Y156777D01*
X622660Y155859D01*
X622317Y155029D01*
X619244D01*
X619074Y155529D01*
X619635Y155959D01*
X620340Y156878D01*
X620783Y157947D01*
X620934Y159095D01*
X620783Y160242D01*
X620340Y161311D01*
X619635Y162230D01*
X618717Y162934D01*
X617648Y163377D01*
X616500Y163528D01*
D02*
G37*
G36*
X626500Y147170D02*
X625352Y147019D01*
X624283Y146576D01*
X623365Y145871D01*
X622660Y144953D01*
X622218Y143884D01*
X622066Y142736D01*
X622218Y141589D01*
X622660Y140519D01*
X623365Y139601D01*
X624283Y138897D01*
X625352Y138454D01*
X626500Y138303D01*
X627647Y138454D01*
X628717Y138897D01*
X629635Y139601D01*
X630340Y140519D01*
X630783Y141589D01*
X630934Y142736D01*
X630783Y143884D01*
X630340Y144953D01*
X629635Y145871D01*
X628717Y146576D01*
X627647Y147019D01*
X626500Y147170D01*
D02*
G37*
G36*
X616500Y141717D02*
X615352Y141566D01*
X614283Y141123D01*
X613365Y140419D01*
X612660Y139500D01*
X612218Y138431D01*
X612066Y137284D01*
X612218Y136136D01*
X612660Y135067D01*
X613365Y134148D01*
X614283Y133444D01*
X615352Y133001D01*
X616500Y132850D01*
X617648Y133001D01*
X618717Y133444D01*
X619635Y134148D01*
X620340Y135067D01*
X620783Y136136D01*
X620934Y137284D01*
X620783Y138431D01*
X620340Y139500D01*
X619635Y140419D01*
X618717Y141123D01*
X617648Y141566D01*
X616500Y141717D01*
D02*
G37*
G36*
X635445Y122658D02*
Y119500D01*
X638209D01*
Y122658D01*
X635445D01*
D02*
G37*
G36*
X631681Y122658D02*
X631319D01*
X631181Y122658D01*
X624791D01*
Y117505D01*
X622675Y115389D01*
X622343Y114892D01*
X622226Y114307D01*
Y114153D01*
X621856Y113818D01*
X621500Y113853D01*
X619658Y113671D01*
X617886Y113134D01*
X616254Y112261D01*
X614823Y111087D01*
X613648Y109656D01*
X612776Y108023D01*
X612238Y106252D01*
X612057Y104409D01*
X612238Y102567D01*
X612776Y100796D01*
X613648Y99163D01*
X614823Y97732D01*
X616254Y96558D01*
X617886Y95685D01*
X619658Y95148D01*
X621500Y94966D01*
X623342Y95148D01*
X625114Y95685D01*
X626746Y96558D01*
X628177Y97732D01*
X629352Y99163D01*
X630224Y100796D01*
X630762Y102567D01*
X630943Y104409D01*
X630762Y106252D01*
X630224Y108023D01*
X629352Y109656D01*
X628177Y111087D01*
X626746Y112261D01*
X625285Y113042D01*
Y113674D01*
X626954Y115342D01*
X631181D01*
X631319Y115342D01*
X631681D01*
X631819Y115342D01*
X634445D01*
Y119000D01*
Y122658D01*
X631819D01*
X631681Y122658D01*
D02*
G37*
G36*
X677000Y121433D02*
X675550Y121291D01*
X674155Y120868D01*
X672870Y120181D01*
X671744Y119256D01*
X670819Y118130D01*
X670132Y116845D01*
X669709Y115450D01*
X669567Y114000D01*
X669709Y112550D01*
X670132Y111155D01*
X670819Y109870D01*
X671744Y108744D01*
X672870Y107819D01*
X674155Y107132D01*
X675550Y106709D01*
X677000Y106567D01*
X678450Y106709D01*
X679845Y107132D01*
X681130Y107819D01*
X682256Y108744D01*
X683181Y109870D01*
X683868Y111155D01*
X684291Y112550D01*
X684433Y114000D01*
X684291Y115450D01*
X683868Y116845D01*
X683181Y118130D01*
X682256Y119256D01*
X681130Y120181D01*
X679845Y120868D01*
X678450Y121291D01*
X677000Y121433D01*
D02*
G37*
G36*
X643110Y106000D02*
X640346D01*
Y102842D01*
X643110D01*
Y106000D01*
D02*
G37*
%LPD*%
G36*
X663056Y174006D02*
Y168719D01*
X661185Y166848D01*
X660520D01*
X660157Y167181D01*
Y173709D01*
X658029D01*
Y174845D01*
X658265Y174943D01*
X658996Y175504D01*
X659557Y176235D01*
X659722Y176633D01*
X660312Y176751D01*
X663056Y174006D01*
D02*
G37*
D13*
X600000Y184224D02*
X601275D01*
X596000D02*
X600000D01*
X597390Y188803D02*
Y198500D01*
Y188803D02*
X600000Y186193D01*
Y184224D02*
Y186193D01*
X583123Y193623D02*
X594000Y204500D01*
X603811D02*
X616500Y191811D01*
X594000Y204500D02*
X603811D01*
X583000Y190445D02*
Y191811D01*
X583123Y191934D01*
Y193623D01*
X580366Y191811D02*
X583000D01*
X593941Y174941D02*
Y182166D01*
X582500Y164866D02*
X584141Y166507D01*
X585507D01*
X593941Y174941D01*
X643610Y106500D02*
Y110335D01*
X637102Y116842D02*
X643610Y110335D01*
X636709Y116842D02*
X637102D01*
X634945Y118606D02*
X636709Y116842D01*
X634945Y118606D02*
Y119000D01*
X621500Y104409D02*
X623756Y106665D01*
Y114307D01*
X628055Y118606D01*
Y119000D01*
X660500Y178725D02*
X664586Y174640D01*
X660000Y187000D02*
X660500Y186500D01*
Y178725D02*
Y186500D01*
X656500Y170445D02*
Y178000D01*
X661819Y165319D02*
X664586Y168086D01*
Y174640D01*
X656500Y163555D02*
X658264Y165319D01*
X661819D01*
X648445Y162000D02*
X654945D01*
X656500Y163555D01*
X648500Y172000D02*
X654945D01*
X656500Y170445D01*
X634000Y179610D02*
Y202000D01*
X641610Y172000D02*
Y172394D01*
X639847Y174158D02*
X641610Y172394D01*
X639453Y174158D02*
X639847D01*
X634000Y179610D02*
X639453Y174158D01*
X616500Y202716D02*
X633284D01*
X634000Y202000D01*
X639791Y145291D02*
Y160236D01*
X626500Y131831D02*
X629396Y134726D01*
Y134896D01*
X639791Y145291D01*
Y160236D02*
X641555Y162000D01*
X580606Y183555D02*
X581000Y183161D01*
X582500Y173134D02*
Y183161D01*
X593941Y182166D02*
X596000Y184224D01*
X610604Y174896D02*
X618528D01*
X621960Y171464D01*
Y169087D02*
Y171464D01*
Y169087D02*
X626500Y164547D01*
X601275Y184224D02*
X610604Y174896D01*
X626358Y153500D02*
X626500Y153642D01*
X611000Y153500D02*
X626358D01*
X600000Y149776D02*
X607275D01*
X611000Y153500D01*
X663500Y115500D02*
X688500Y140500D01*
X663500Y233000D02*
X663500D01*
X688500Y140500D02*
Y232250D01*
X683750Y237000D02*
X688500Y232250D01*
X667500Y237000D02*
X683750D01*
X663500Y107000D02*
Y115500D01*
X663500Y233000D02*
X667500Y237000D01*
X627965Y118909D02*
X628055Y119000D01*
X651500Y107000D02*
X663500D01*
X641555Y162000D02*
Y162394D01*
X639791Y164157D02*
X641555Y162394D01*
X648000Y202500D02*
X659500D01*
Y194500D02*
X660000Y195000D01*
X645000Y194500D02*
X659500D01*
Y202500D02*
X660000Y203000D01*
X667500Y198500D02*
X682500D01*
X683000Y199000D01*
X667000D02*
X667500Y198500D01*
X667000Y207000D02*
X678000D01*
D22*
X667000Y153000D02*
D03*
Y215000D02*
D03*
D23*
X660000Y149000D02*
D03*
X667000Y145000D02*
D03*
X660000Y141000D02*
D03*
X667000Y137000D02*
D03*
X660000Y133000D02*
D03*
X667000Y129000D02*
D03*
X660000Y125000D02*
D03*
Y187000D02*
D03*
X667000Y191000D02*
D03*
X660000Y195000D02*
D03*
X667000Y199000D02*
D03*
X660000Y203000D02*
D03*
X667000Y207000D02*
D03*
X660000Y211000D02*
D03*
D24*
X677000Y114000D02*
D03*
Y226000D02*
D03*
D25*
X663500Y107000D02*
D03*
Y233000D02*
D03*
D26*
X621500Y104409D02*
D03*
Y235591D02*
D03*
D27*
X626500Y131831D02*
D03*
D28*
Y142736D02*
D03*
Y153642D02*
D03*
Y164547D02*
D03*
Y175453D02*
D03*
Y186358D02*
D03*
Y197264D02*
D03*
Y208169D02*
D03*
X616500Y137284D02*
D03*
Y148189D02*
D03*
Y159095D02*
D03*
Y170000D02*
D03*
Y180905D02*
D03*
Y191811D02*
D03*
Y202716D02*
D03*
D29*
X656500Y178000D02*
D03*
X648000Y202500D02*
D03*
X645000Y194500D02*
D03*
X683000Y199000D02*
D03*
X678000Y207000D02*
D03*
D30*
X648445Y162000D02*
D03*
X641555D02*
D03*
X590500Y198500D02*
D03*
X597390D02*
D03*
X643610Y106500D02*
D03*
X650500D02*
D03*
X628055Y119000D02*
D03*
X634945D02*
D03*
X648500Y172000D02*
D03*
X641610D02*
D03*
D31*
X656500Y170445D02*
D03*
Y163555D02*
D03*
X583000Y190445D02*
D03*
Y183555D02*
D03*
D32*
X600000Y184224D02*
D03*
Y149776D02*
D03*
D33*
X582500Y173134D02*
D03*
Y164866D02*
D03*
M02*
