G04*
G04 #@! TF.GenerationSoftware,Altium Limited,Altium Designer,20.2.8 (258)*
G04*
G04 Layer_Color=16711935*
%FSLAX25Y25*%
%MOIN*%
G70*
G04*
G04 #@! TF.SameCoordinates,CC9CDF83-AFDD-4123-BE52-42B745630FB9*
G04*
G04*
G04 #@! TF.FilePolarity,Negative*
G04*
G01*
G75*
%ADD14R,0.06312X0.06312*%
%ADD15C,0.06312*%
%ADD16C,0.13595*%
%ADD17C,0.10249*%
%ADD18C,0.17595*%
%ADD19R,0.07591X0.07591*%
%ADD20C,0.07591*%
%ADD21C,0.05800*%
%ADD34R,0.05328X0.06115*%
%ADD35R,0.06115X0.05328*%
%ADD36R,0.05918X0.09855*%
%ADD37R,0.05524X0.05131*%
D14*
X667000Y153000D02*
D03*
Y215000D02*
D03*
D15*
X660000Y149000D02*
D03*
X667000Y145000D02*
D03*
X660000Y141000D02*
D03*
X667000Y137000D02*
D03*
X660000Y133000D02*
D03*
X667000Y129000D02*
D03*
X660000Y125000D02*
D03*
Y187000D02*
D03*
X667000Y191000D02*
D03*
X660000Y195000D02*
D03*
X667000Y199000D02*
D03*
X660000Y203000D02*
D03*
X667000Y207000D02*
D03*
X660000Y211000D02*
D03*
D16*
X677000Y114000D02*
D03*
Y226000D02*
D03*
D17*
X663500Y107000D02*
D03*
Y233000D02*
D03*
D18*
X621500Y104409D02*
D03*
Y235591D02*
D03*
D19*
X626500Y131831D02*
D03*
D20*
Y142736D02*
D03*
Y153642D02*
D03*
Y164547D02*
D03*
Y175453D02*
D03*
Y186358D02*
D03*
Y197264D02*
D03*
Y208169D02*
D03*
X616500Y137284D02*
D03*
Y148189D02*
D03*
Y159095D02*
D03*
Y170000D02*
D03*
Y180905D02*
D03*
Y191811D02*
D03*
Y202716D02*
D03*
D21*
X656500Y178000D02*
D03*
X648000Y202500D02*
D03*
X645000Y194500D02*
D03*
X683000Y199000D02*
D03*
X678000Y207000D02*
D03*
D34*
X648445Y162000D02*
D03*
X641555D02*
D03*
X590500Y198500D02*
D03*
X597390D02*
D03*
X643610Y106500D02*
D03*
X650500D02*
D03*
X628055Y119000D02*
D03*
X634945D02*
D03*
X648500Y172000D02*
D03*
X641610D02*
D03*
D35*
X656500Y170445D02*
D03*
Y163555D02*
D03*
X583000Y190445D02*
D03*
Y183555D02*
D03*
D36*
X600000Y184224D02*
D03*
Y149776D02*
D03*
D37*
X582500Y173134D02*
D03*
Y164866D02*
D03*
M02*
