G04*
G04 #@! TF.GenerationSoftware,Altium Limited,Altium Designer,20.2.8 (258)*
G04*
G04 Layer_Physical_Order=1*
G04 Layer_Color=255*
%FSLAX25Y25*%
%MOIN*%
G70*
G04*
G04 #@! TF.SameCoordinates,CC9CDF83-AFDD-4123-BE52-42B745630FB9*
G04*
G04*
G04 #@! TF.FilePolarity,Positive*
G04*
G01*
G75*
%ADD13C,0.01000*%
%ADD22R,0.05512X0.05512*%
%ADD23C,0.05512*%
%ADD24C,0.12795*%
%ADD25C,0.09449*%
%ADD26C,0.16795*%
%ADD27R,0.06791X0.06791*%
%ADD28C,0.06791*%
%ADD29C,0.05000*%
G36*
X700000Y92000D02*
X575500D01*
Y248000D01*
X700000D01*
Y92000D01*
D02*
G37*
%LPC*%
G36*
X663500Y238774D02*
X662006Y238577D01*
X660613Y238000D01*
X659417Y237083D01*
X658500Y235887D01*
X657923Y234494D01*
X657726Y233000D01*
X657923Y231506D01*
X658500Y230113D01*
X659417Y228917D01*
X660613Y228000D01*
X662006Y227423D01*
X663500Y227226D01*
X664994Y227423D01*
X666387Y228000D01*
X667583Y228917D01*
X668500Y230113D01*
X669077Y231506D01*
X669274Y233000D01*
X669077Y234494D01*
X668500Y235887D01*
X667583Y237083D01*
X666387Y238000D01*
X664994Y238577D01*
X663500Y238774D01*
D02*
G37*
G36*
X677000Y233433D02*
X675550Y233291D01*
X674155Y232868D01*
X672870Y232181D01*
X671744Y231256D01*
X670819Y230130D01*
X670132Y228845D01*
X669709Y227450D01*
X669567Y226000D01*
X669709Y224550D01*
X670132Y223155D01*
X670819Y221870D01*
X671744Y220744D01*
X672870Y219819D01*
X674155Y219132D01*
X675550Y218709D01*
X677000Y218567D01*
X678450Y218709D01*
X679845Y219132D01*
X681130Y219819D01*
X682256Y220744D01*
X683181Y221870D01*
X683868Y223155D01*
X684291Y224550D01*
X684433Y226000D01*
X684291Y227450D01*
X683868Y228845D01*
X683181Y230130D01*
X682256Y231256D01*
X681130Y232181D01*
X679845Y232868D01*
X678450Y233291D01*
X677000Y233433D01*
D02*
G37*
G36*
X670756Y218756D02*
X663244D01*
Y213720D01*
X662771Y213559D01*
X662679Y213679D01*
X661894Y214281D01*
X660981Y214659D01*
X660000Y214788D01*
X659020Y214659D01*
X658106Y214281D01*
X657321Y213679D01*
X656719Y212894D01*
X656341Y211981D01*
X656212Y211000D01*
X656341Y210019D01*
X656492Y209655D01*
X651433Y204596D01*
X651415Y204581D01*
X650816Y204580D01*
X650496Y204996D01*
X649765Y205557D01*
X648914Y205910D01*
X648000Y206030D01*
X647086Y205910D01*
X646235Y205557D01*
X645504Y204996D01*
X644943Y204265D01*
X644590Y203414D01*
X644470Y202500D01*
X644590Y201586D01*
X644943Y200735D01*
X645504Y200004D01*
X646235Y199443D01*
X646471Y199345D01*
Y198129D01*
X646055Y197851D01*
X645914Y197910D01*
X645000Y198030D01*
X644086Y197910D01*
X643235Y197557D01*
X642504Y196996D01*
X641943Y196265D01*
X641590Y195414D01*
X641470Y194500D01*
X641590Y193586D01*
X641943Y192735D01*
X642504Y192004D01*
X643235Y191443D01*
X643471Y191345D01*
Y147000D01*
X643587Y146415D01*
X643919Y145919D01*
X656285Y133553D01*
X656212Y133000D01*
X656341Y132019D01*
X656719Y131106D01*
X657321Y130321D01*
X658106Y129719D01*
X659020Y129341D01*
X659693Y129252D01*
Y128748D01*
X659020Y128659D01*
X658106Y128281D01*
X657321Y127679D01*
X656719Y126894D01*
X656341Y125980D01*
X656212Y125000D01*
X656341Y124020D01*
X656719Y123106D01*
X657321Y122321D01*
X658106Y121719D01*
X659020Y121341D01*
X660000Y121212D01*
X660981Y121341D01*
X661894Y121719D01*
X662679Y122321D01*
X663281Y123106D01*
X663659Y124020D01*
X663788Y125000D01*
X663659Y125980D01*
X663467Y126444D01*
X663283Y126889D01*
X663642Y127067D01*
X663988Y126755D01*
X664003Y126736D01*
X664321Y126321D01*
X665106Y125719D01*
X666019Y125341D01*
X667000Y125212D01*
X667980Y125341D01*
X668894Y125719D01*
X669679Y126321D01*
X670281Y127106D01*
X670659Y128019D01*
X670788Y129000D01*
X670659Y129981D01*
X670281Y130894D01*
X669679Y131679D01*
X668894Y132281D01*
X667980Y132659D01*
X667307Y132748D01*
Y133252D01*
X667980Y133341D01*
X668894Y133719D01*
X669679Y134321D01*
X670281Y135106D01*
X670659Y136020D01*
X670788Y137000D01*
X670659Y137980D01*
X670508Y138345D01*
X684081Y151919D01*
X684413Y152415D01*
X684529Y153000D01*
Y195845D01*
X684765Y195943D01*
X685496Y196504D01*
X686057Y197235D01*
X686410Y198086D01*
X686530Y199000D01*
X686410Y199914D01*
X686057Y200765D01*
X685496Y201496D01*
X684765Y202057D01*
X683914Y202410D01*
X683000Y202530D01*
X682086Y202410D01*
X681235Y202057D01*
X680504Y201496D01*
X680029Y200878D01*
X679529Y201007D01*
Y203845D01*
X679765Y203943D01*
X680496Y204504D01*
X681057Y205235D01*
X681410Y206086D01*
X681530Y207000D01*
X681410Y207914D01*
X681057Y208765D01*
X680496Y209496D01*
X679765Y210057D01*
X678914Y210410D01*
X678000Y210530D01*
X677086Y210410D01*
X676235Y210057D01*
X675504Y209496D01*
X675029Y208878D01*
X674543Y208997D01*
X674529Y209004D01*
X674529Y209004D01*
X674413Y209585D01*
X674081Y210081D01*
X670756Y213407D01*
Y218756D01*
D02*
G37*
G36*
X626500Y212603D02*
X625352Y212452D01*
X624283Y212009D01*
X623365Y211304D01*
X622660Y210386D01*
X622218Y209317D01*
X622066Y208169D01*
X622218Y207022D01*
X622660Y205953D01*
X623365Y205034D01*
X624283Y204330D01*
X625352Y203887D01*
X626500Y203736D01*
X627647Y203887D01*
X628717Y204330D01*
X629635Y205034D01*
X630340Y205953D01*
X630783Y207022D01*
X630934Y208169D01*
X630783Y209317D01*
X630340Y210386D01*
X629635Y211304D01*
X628717Y212009D01*
X627647Y212452D01*
X626500Y212603D01*
D02*
G37*
G36*
X616500Y207150D02*
X615352Y206999D01*
X614283Y206556D01*
X613365Y205852D01*
X612660Y204933D01*
X612218Y203864D01*
X612066Y202716D01*
X612218Y201569D01*
X612660Y200500D01*
X613365Y199582D01*
X614283Y198877D01*
X615352Y198434D01*
X616500Y198283D01*
X617648Y198434D01*
X618717Y198877D01*
X619635Y199582D01*
X620340Y200500D01*
X620783Y201569D01*
X620934Y202716D01*
X620783Y203864D01*
X620340Y204933D01*
X619635Y205852D01*
X618717Y206556D01*
X617648Y206999D01*
X616500Y207150D01*
D02*
G37*
G36*
X626500Y201697D02*
X625352Y201546D01*
X624283Y201103D01*
X623365Y200399D01*
X622660Y199481D01*
X622218Y198411D01*
X622066Y197264D01*
X622218Y196116D01*
X622660Y195047D01*
X623365Y194129D01*
X624283Y193424D01*
X625352Y192981D01*
X626500Y192830D01*
X627647Y192981D01*
X628717Y193424D01*
X629635Y194129D01*
X630340Y195047D01*
X630783Y196116D01*
X630934Y197264D01*
X630783Y198411D01*
X630340Y199481D01*
X629635Y200399D01*
X628717Y201103D01*
X627647Y201546D01*
X626500Y201697D01*
D02*
G37*
G36*
X616500Y196245D02*
X615352Y196094D01*
X614283Y195651D01*
X613365Y194946D01*
X612660Y194028D01*
X612218Y192958D01*
X612066Y191811D01*
X612218Y190664D01*
X612660Y189594D01*
X613365Y188676D01*
X614283Y187971D01*
X615352Y187529D01*
X616500Y187377D01*
X617648Y187529D01*
X618717Y187971D01*
X619635Y188676D01*
X620340Y189594D01*
X620783Y190664D01*
X620934Y191811D01*
X620783Y192958D01*
X620340Y194028D01*
X619635Y194946D01*
X618717Y195651D01*
X617648Y196094D01*
X616500Y196245D01*
D02*
G37*
G36*
X626500Y190792D02*
X625352Y190641D01*
X624283Y190198D01*
X623365Y189493D01*
X622660Y188575D01*
X622218Y187506D01*
X622066Y186358D01*
X622218Y185211D01*
X622660Y184142D01*
X623365Y183223D01*
X624283Y182519D01*
X625352Y182076D01*
X626500Y181925D01*
X627647Y182076D01*
X628717Y182519D01*
X629635Y183223D01*
X630340Y184142D01*
X630783Y185211D01*
X630934Y186358D01*
X630783Y187506D01*
X630340Y188575D01*
X629635Y189493D01*
X628717Y190198D01*
X627647Y190641D01*
X626500Y190792D01*
D02*
G37*
G36*
X616500Y185339D02*
X615352Y185188D01*
X614283Y184745D01*
X613365Y184040D01*
X612660Y183122D01*
X612218Y182053D01*
X612066Y180905D01*
X612218Y179758D01*
X612660Y178689D01*
X613365Y177770D01*
X614283Y177066D01*
X615352Y176623D01*
X616500Y176472D01*
X617648Y176623D01*
X618717Y177066D01*
X619635Y177770D01*
X620340Y178689D01*
X620783Y179758D01*
X620934Y180905D01*
X620783Y182053D01*
X620340Y183122D01*
X619635Y184040D01*
X618717Y184745D01*
X617648Y185188D01*
X616500Y185339D01*
D02*
G37*
G36*
X626500Y179886D02*
X625352Y179735D01*
X624283Y179292D01*
X623365Y178588D01*
X622660Y177670D01*
X622218Y176600D01*
X622066Y175453D01*
X622218Y174305D01*
X622660Y173236D01*
X623365Y172318D01*
X624283Y171613D01*
X625352Y171170D01*
X626500Y171019D01*
X627647Y171170D01*
X628717Y171613D01*
X629635Y172318D01*
X630340Y173236D01*
X630783Y174305D01*
X630934Y175453D01*
X630783Y176600D01*
X630340Y177670D01*
X629635Y178588D01*
X628717Y179292D01*
X627647Y179735D01*
X626500Y179886D01*
D02*
G37*
G36*
X616500Y174434D02*
X615352Y174283D01*
X614283Y173840D01*
X613365Y173135D01*
X612660Y172217D01*
X612218Y171148D01*
X612066Y170000D01*
X612218Y168852D01*
X612660Y167783D01*
X613365Y166865D01*
X614283Y166160D01*
X615352Y165717D01*
X616500Y165566D01*
X617648Y165717D01*
X618717Y166160D01*
X619635Y166865D01*
X620340Y167783D01*
X620783Y168852D01*
X620934Y170000D01*
X620783Y171148D01*
X620340Y172217D01*
X619635Y173135D01*
X618717Y173840D01*
X617648Y174283D01*
X616500Y174434D01*
D02*
G37*
G36*
X626500Y168981D02*
X625352Y168830D01*
X624283Y168387D01*
X623365Y167682D01*
X622660Y166764D01*
X622218Y165695D01*
X622066Y164547D01*
X622218Y163400D01*
X622660Y162330D01*
X623365Y161412D01*
X624283Y160708D01*
X625352Y160265D01*
X626500Y160114D01*
X627647Y160265D01*
X628717Y160708D01*
X629635Y161412D01*
X630340Y162330D01*
X630783Y163400D01*
X630934Y164547D01*
X630783Y165695D01*
X630340Y166764D01*
X629635Y167682D01*
X628717Y168387D01*
X627647Y168830D01*
X626500Y168981D01*
D02*
G37*
G36*
X616500Y163528D02*
X615352Y163377D01*
X614283Y162934D01*
X613365Y162230D01*
X612660Y161311D01*
X612218Y160242D01*
X612066Y159095D01*
X612218Y157947D01*
X612660Y156878D01*
X613365Y155959D01*
X614283Y155255D01*
X615352Y154812D01*
X616500Y154661D01*
X617648Y154812D01*
X618717Y155255D01*
X619635Y155959D01*
X620340Y156878D01*
X620783Y157947D01*
X620934Y159095D01*
X620783Y160242D01*
X620340Y161311D01*
X619635Y162230D01*
X618717Y162934D01*
X617648Y163377D01*
X616500Y163528D01*
D02*
G37*
G36*
X626500Y158075D02*
X625352Y157924D01*
X624283Y157481D01*
X623365Y156777D01*
X622660Y155859D01*
X622218Y154789D01*
X622066Y153642D01*
X622218Y152494D01*
X622660Y151425D01*
X623365Y150507D01*
X624283Y149802D01*
X625352Y149359D01*
X626500Y149208D01*
X627647Y149359D01*
X628717Y149802D01*
X629635Y150507D01*
X630340Y151425D01*
X630783Y152494D01*
X630934Y153642D01*
X630783Y154789D01*
X630340Y155859D01*
X629635Y156777D01*
X628717Y157481D01*
X627647Y157924D01*
X626500Y158075D01*
D02*
G37*
G36*
X616500Y152623D02*
X615352Y152471D01*
X614283Y152029D01*
X613365Y151324D01*
X612660Y150406D01*
X612218Y149337D01*
X612066Y148189D01*
X612218Y147041D01*
X612660Y145972D01*
X613365Y145054D01*
X614283Y144349D01*
X615352Y143906D01*
X616500Y143755D01*
X617648Y143906D01*
X618717Y144349D01*
X619635Y145054D01*
X620340Y145972D01*
X620783Y147041D01*
X620934Y148189D01*
X620783Y149337D01*
X620340Y150406D01*
X619635Y151324D01*
X618717Y152029D01*
X617648Y152471D01*
X616500Y152623D01*
D02*
G37*
G36*
X626500Y147170D02*
X625352Y147019D01*
X624283Y146576D01*
X623365Y145871D01*
X622660Y144953D01*
X622218Y143884D01*
X622066Y142736D01*
X622218Y141589D01*
X622660Y140519D01*
X623365Y139601D01*
X624283Y138897D01*
X625352Y138454D01*
X626500Y138303D01*
X627647Y138454D01*
X628717Y138897D01*
X629635Y139601D01*
X630340Y140519D01*
X630783Y141589D01*
X630934Y142736D01*
X630783Y143884D01*
X630340Y144953D01*
X629635Y145871D01*
X628717Y146576D01*
X627647Y147019D01*
X626500Y147170D01*
D02*
G37*
G36*
X616500Y141717D02*
X615352Y141566D01*
X614283Y141123D01*
X613365Y140419D01*
X612660Y139500D01*
X612218Y138431D01*
X612066Y137284D01*
X612218Y136136D01*
X612660Y135067D01*
X613365Y134148D01*
X614283Y133444D01*
X615352Y133001D01*
X616500Y132850D01*
X617648Y133001D01*
X618717Y133444D01*
X619635Y134148D01*
X620340Y135067D01*
X620783Y136136D01*
X620934Y137284D01*
X620783Y138431D01*
X620340Y139500D01*
X619635Y140419D01*
X618717Y141123D01*
X617648Y141566D01*
X616500Y141717D01*
D02*
G37*
G36*
X630896Y136226D02*
X622104D01*
Y127435D01*
X630896D01*
Y136226D01*
D02*
G37*
G36*
X621500Y245034D02*
X619658Y244852D01*
X617886Y244315D01*
X616254Y243442D01*
X614823Y242268D01*
X613648Y240837D01*
X612776Y239204D01*
X612238Y237433D01*
X612057Y235591D01*
X612238Y233748D01*
X612776Y231977D01*
X613648Y230344D01*
X614823Y228913D01*
X616254Y227739D01*
X617886Y226866D01*
X619658Y226329D01*
X621500Y226147D01*
X623342Y226329D01*
X625114Y226866D01*
X626746Y227739D01*
X626989Y227938D01*
X636971Y217957D01*
Y124134D01*
X625672Y112835D01*
X625114Y113134D01*
X623342Y113671D01*
X621500Y113853D01*
X619658Y113671D01*
X617886Y113134D01*
X616254Y112261D01*
X614823Y111087D01*
X613648Y109656D01*
X612776Y108023D01*
X612238Y106252D01*
X612057Y104409D01*
X612238Y102567D01*
X612776Y100796D01*
X613648Y99163D01*
X614823Y97732D01*
X616254Y96558D01*
X617886Y95685D01*
X619658Y95148D01*
X621500Y94966D01*
X623342Y95148D01*
X625114Y95685D01*
X626746Y96558D01*
X628177Y97732D01*
X629352Y99163D01*
X630224Y100796D01*
X630762Y102567D01*
X630943Y104409D01*
X630762Y106252D01*
X630224Y108023D01*
X629352Y109656D01*
X628210Y111047D01*
X639581Y122419D01*
X639913Y122915D01*
X640029Y123500D01*
Y218590D01*
X639913Y219176D01*
X639581Y219672D01*
X629152Y230101D01*
X629352Y230344D01*
X630224Y231977D01*
X630762Y233748D01*
X630943Y235591D01*
X630762Y237433D01*
X630224Y239204D01*
X629352Y240837D01*
X628177Y242268D01*
X626746Y243442D01*
X625114Y244315D01*
X623342Y244852D01*
X621500Y245034D01*
D02*
G37*
G36*
X677000Y121433D02*
X675550Y121291D01*
X674155Y120868D01*
X672870Y120181D01*
X671744Y119256D01*
X670819Y118130D01*
X670132Y116845D01*
X669709Y115450D01*
X669567Y114000D01*
X669709Y112550D01*
X670132Y111155D01*
X670819Y109870D01*
X671744Y108744D01*
X672870Y107819D01*
X674155Y107132D01*
X675550Y106709D01*
X677000Y106567D01*
X678450Y106709D01*
X679845Y107132D01*
X681130Y107819D01*
X682256Y108744D01*
X683181Y109870D01*
X683868Y111155D01*
X684291Y112550D01*
X684433Y114000D01*
X684291Y115450D01*
X683868Y116845D01*
X683181Y118130D01*
X682256Y119256D01*
X681130Y120181D01*
X679845Y120868D01*
X678450Y121291D01*
X677000Y121433D01*
D02*
G37*
G36*
X663500Y112774D02*
X662006Y112577D01*
X660613Y112000D01*
X659417Y111083D01*
X658500Y109887D01*
X657923Y108494D01*
X657726Y107000D01*
X657923Y105506D01*
X658500Y104113D01*
X659417Y102917D01*
X660613Y102000D01*
X662006Y101423D01*
X663500Y101226D01*
X664994Y101423D01*
X666387Y102000D01*
X667583Y102917D01*
X668500Y104113D01*
X669077Y105506D01*
X669274Y107000D01*
X669077Y108494D01*
X668500Y109887D01*
X667583Y111083D01*
X666387Y112000D01*
X664994Y112577D01*
X663500Y112774D01*
D02*
G37*
%LPD*%
G36*
X656719Y204894D02*
X656341Y203980D01*
X656212Y203000D01*
X656341Y202020D01*
X656719Y201106D01*
X657321Y200321D01*
X658106Y199719D01*
X659020Y199341D01*
X659693Y199252D01*
Y198748D01*
X659020Y198659D01*
X658106Y198281D01*
X657321Y197679D01*
X656719Y196894D01*
X656341Y195981D01*
X656212Y195000D01*
X656341Y194019D01*
X656719Y193106D01*
X657321Y192321D01*
X658106Y191719D01*
X659020Y191341D01*
X659693Y191252D01*
Y190748D01*
X659020Y190659D01*
X658106Y190281D01*
X657321Y189679D01*
X656719Y188894D01*
X656341Y187980D01*
X656212Y187000D01*
X656341Y186020D01*
X656719Y185106D01*
X657321Y184321D01*
X658106Y183719D01*
X659020Y183341D01*
X659435Y183286D01*
X659614Y182758D01*
X658016Y181160D01*
X657414Y181410D01*
X656500Y181530D01*
X655586Y181410D01*
X654735Y181057D01*
X654478Y180860D01*
X654029Y181081D01*
Y202867D01*
X656308Y205145D01*
X656719Y204894D01*
D02*
G37*
G36*
X671471Y208366D02*
Y159634D01*
X668593Y156756D01*
X663244D01*
Y151720D01*
X662771Y151559D01*
X662679Y151679D01*
X661894Y152281D01*
X660981Y152659D01*
X660000Y152788D01*
X659020Y152659D01*
X658655Y152508D01*
X654029Y157133D01*
Y174919D01*
X654478Y175140D01*
X654735Y174943D01*
X655586Y174590D01*
X656500Y174470D01*
X657414Y174590D01*
X658265Y174943D01*
X658996Y175504D01*
X659557Y176235D01*
X659910Y177086D01*
X660030Y178000D01*
X659932Y178750D01*
X668081Y186900D01*
X668413Y187396D01*
X668440Y187531D01*
X668894Y187719D01*
X669679Y188321D01*
X670281Y189106D01*
X670659Y190020D01*
X670788Y191000D01*
X670659Y191981D01*
X670281Y192894D01*
X669679Y193679D01*
X668894Y194281D01*
X667980Y194659D01*
X667307Y194748D01*
Y195252D01*
X667980Y195341D01*
X668894Y195719D01*
X669679Y196321D01*
X670281Y197106D01*
X670659Y198020D01*
X670788Y199000D01*
X670659Y199980D01*
X670281Y200894D01*
X669679Y201679D01*
X668894Y202281D01*
X667980Y202659D01*
X667307Y202748D01*
Y203252D01*
X667980Y203341D01*
X668894Y203719D01*
X669679Y204321D01*
X670281Y205106D01*
X670659Y206019D01*
X670788Y207000D01*
X670659Y207980D01*
X670281Y208894D01*
X670692Y209145D01*
X671471Y208366D01*
D02*
G37*
G36*
X675504Y204504D02*
X676235Y203943D01*
X676471Y203845D01*
Y156633D01*
X671218Y151381D01*
X670756Y151572D01*
Y154593D01*
X674081Y157919D01*
X674413Y158415D01*
X674529Y159000D01*
Y204993D01*
X675029Y205122D01*
X675504Y204504D01*
D02*
G37*
G36*
X680504Y196504D02*
X681235Y195943D01*
X681471Y195845D01*
Y153633D01*
X670692Y142855D01*
X670281Y143106D01*
X670659Y144019D01*
X670788Y145000D01*
X670659Y145981D01*
X670508Y146345D01*
X679081Y154919D01*
X679413Y155415D01*
X679529Y156000D01*
Y196993D01*
X680029Y197122D01*
X680504Y196504D01*
D02*
G37*
G36*
X647471Y191419D02*
Y152000D01*
X647587Y151415D01*
X647919Y150919D01*
X656492Y142345D01*
X656341Y141981D01*
X656212Y141000D01*
X656341Y140020D01*
X656719Y139106D01*
X657321Y138321D01*
X658106Y137719D01*
X659020Y137341D01*
X659693Y137252D01*
Y136748D01*
X659020Y136659D01*
X658106Y136281D01*
X657979Y136184D01*
X646529Y147634D01*
Y191345D01*
X646765Y191443D01*
X647022Y191640D01*
X647471Y191419D01*
D02*
G37*
D13*
X621500Y235591D02*
X638500Y218590D01*
Y123500D02*
Y218590D01*
X621500Y104409D02*
Y106500D01*
X638500Y123500D01*
X652500Y156500D02*
X660000Y149000D01*
X667000Y153000D02*
X673000Y159000D01*
X652500Y203500D02*
X660000Y211000D01*
Y149000D02*
Y149000D01*
X667000Y215000D02*
X673000Y209000D01*
X657519Y178500D02*
X667000Y187981D01*
X673000Y159000D02*
Y209000D01*
X652500Y156500D02*
Y203500D01*
X667000Y187981D02*
Y191000D01*
X649000Y152000D02*
Y196157D01*
Y152000D02*
X660000Y141000D01*
X648000Y197157D02*
Y202500D01*
Y197157D02*
X649000Y196157D01*
X645000Y147000D02*
Y194500D01*
Y147000D02*
X659000Y133000D01*
X667000Y137000D02*
X683000Y153000D01*
Y199000D01*
X667000Y145000D02*
X678000Y156000D01*
Y207000D01*
X659000Y133000D02*
X660000D01*
D22*
X667000Y153000D02*
D03*
Y215000D02*
D03*
D23*
X660000Y149000D02*
D03*
X667000Y145000D02*
D03*
X660000Y141000D02*
D03*
X667000Y137000D02*
D03*
X660000Y133000D02*
D03*
X667000Y129000D02*
D03*
X660000Y125000D02*
D03*
Y187000D02*
D03*
X667000Y191000D02*
D03*
X660000Y195000D02*
D03*
X667000Y199000D02*
D03*
X660000Y203000D02*
D03*
X667000Y207000D02*
D03*
X660000Y211000D02*
D03*
D24*
X677000Y114000D02*
D03*
Y226000D02*
D03*
D25*
X663500Y107000D02*
D03*
Y233000D02*
D03*
D26*
X621500Y104409D02*
D03*
Y235591D02*
D03*
D27*
X626500Y131831D02*
D03*
D28*
Y142736D02*
D03*
Y153642D02*
D03*
Y164547D02*
D03*
Y175453D02*
D03*
Y186358D02*
D03*
Y197264D02*
D03*
Y208169D02*
D03*
X616500Y137284D02*
D03*
Y148189D02*
D03*
Y159095D02*
D03*
Y170000D02*
D03*
Y180905D02*
D03*
Y191811D02*
D03*
Y202716D02*
D03*
D29*
X656500Y178000D02*
D03*
X648000Y202500D02*
D03*
X645000Y194500D02*
D03*
X683000Y199000D02*
D03*
X678000Y207000D02*
D03*
M02*
