ISO-10303-21;
HEADER;
FILE_DESCRIPTION((''),'2;1');
FILE_NAME('COVER','2023-08-01T14:12:35',('valen'),(''),
'CREO PARAMETRIC BY PTC INC, 2022073','CREO PARAMETRIC BY PTC INC, 2022073','');
FILE_SCHEMA(('CONFIG_CONTROL_DESIGN'));
ENDSEC;
DATA;
#1=CARTESIAN_POINT('',(1.461609958567E2,1.486800003052E1,6.184035229928E0));
#2=DIRECTION('',(1.E0,1.192487299576E-8,4.371140766226E-8));
#3=DIRECTION('',(-4.371140055975E-8,0.E0,1.E0));
#4=AXIS2_PLACEMENT_3D('',#1,#2,#3);
#6=CARTESIAN_POINT('',(1.461609958567E2,1.486800003052E1,6.184035229928E0));
#7=DIRECTION('',(1.E0,1.192487299576E-8,4.371140766226E-8));
#8=DIRECTION('',(4.371140055975E-8,0.E0,-1.E0));
#9=AXIS2_PLACEMENT_3D('',#6,#7,#8);
#11=CARTESIAN_POINT('',(1.461609951812E2,7.151288603004E1,6.184035229928E0));
#12=DIRECTION('',(1.E0,1.192487299576E-8,4.371140766226E-8));
#13=DIRECTION('',(-4.371140055975E-8,0.E0,1.E0));
#14=AXIS2_PLACEMENT_3D('',#11,#12,#13);
#16=CARTESIAN_POINT('',(1.461609951812E2,7.151288603004E1,6.184035229928E0));
#17=DIRECTION('',(1.E0,1.192487299576E-8,4.371140766226E-8));
#18=DIRECTION('',(4.371140055975E-8,0.E0,-1.E0));
#19=AXIS2_PLACEMENT_3D('',#16,#17,#18);
#21=DIRECTION('',(1.192487930962E-8,-1.E0,-1.748454683647E-7));
#22=VECTOR('',#21,3.414E1);
#23=CARTESIAN_POINT('',(1.461609950197E2,6.024999933639E1,1.295000133953E1));
#24=LINE('',#23,#22);
#25=DIRECTION('',(4.371140888043E-8,1.748454675205E-7,-1.E0));
#26=VECTOR('',#25,5.9E0);
#27=CARTESIAN_POINT('',(1.461609955938E2,2.310999986093E1,9.949994845771E0));
#28=LINE('',#27,#26);
#29=DIRECTION('',(-1.192488097463E-8,1.E0,1.748454674151E-7));
#30=VECTOR('',#29,3.414E1);
#31=CARTESIAN_POINT('',(1.461609959470E2,2.611000141706E1,1.049995370307E0));
#32=LINE('',#31,#30);
#33=DIRECTION('',(-4.371140888043E-8,-1.748454705313E-7,1.E0));
#34=VECTOR('',#33,5.9E0);
#35=CARTESIAN_POINT('',(1.461609953730E2,6.325000089252E1,4.050001864068E0));
#36=LINE('',#35,#34);
#37=CARTESIAN_POINT('',(1.461609958626E2,1.436799965323E1,6.184035229928E0));
#38=DIRECTION('',(-1.E0,-1.192487288442E-8,-4.371140764798E-8));
#39=DIRECTION('',(4.371140486607E-8,0.E0,-1.E0));
#40=AXIS2_PLACEMENT_3D('',#37,#38,#39);
#42=DIRECTION('',(-1.192486707922E-8,1.E0,0.E0));
#43=VECTOR('',#42,4.000000377291E0);
#44=CARTESIAN_POINT('',(1.461609957315E2,1.436799965323E1,9.184035229928E0));
#45=LINE('',#44,#43);
#46=DIRECTION('',(-4.371141189371E-8,0.E0,1.E0));
#47=VECTOR('',#46,7.280400227461E0);
#48=CARTESIAN_POINT('',(1.461609955169E2,2.136800003052E1,1.218403522993E1));
#49=LINE('',#48,#47);
#50=DIRECTION('',(-1.192487257797E-8,1.E0,0.E0));
#51=VECTOR('',#50,4.362400054932E1);
#52=CARTESIAN_POINT('',(1.461609951987E2,2.136800003052E1,1.946443545739E1));
#53=LINE('',#52,#51);
#54=DIRECTION('',(4.371140798984E-8,0.E0,-1.E0));
#55=VECTOR('',#54,7.280400227461E0);
#56=CARTESIAN_POINT('',(1.461609946784E2,6.499200057983E1,1.946443545739E1));
#57=LINE('',#56,#55);
#58=DIRECTION('',(-1.192488129007E-8,1.E0,0.E0));
#59=VECTOR('',#58,4.000000377291E0);
#60=CARTESIAN_POINT('',(1.461609950920E2,6.799200057983E1,9.184035229928E0));
#61=LINE('',#60,#59);
#62=CARTESIAN_POINT('',(1.461609951755E2,7.199200095712E1,6.184035229928E0));
#63=DIRECTION('',(-1.E0,-1.192487251820E-8,-4.371140764798E-8));
#64=DIRECTION('',(-4.371140486607E-8,-2.842170943040E-14,1.E0));
#65=AXIS2_PLACEMENT_3D('',#62,#63,#64);
#67=DIRECTION('',(1.192488129007E-8,-1.E0,0.E0));
#68=VECTOR('',#67,4.000000377291E0);
#69=CARTESIAN_POINT('',(1.461609953066E2,7.199200095712E1,3.184035229928E0));
#70=LINE('',#69,#68);
#71=DIRECTION('',(4.371141189371E-8,0.E0,-1.E0));
#72=VECTOR('',#71,7.280400227461E0);
#73=CARTESIAN_POINT('',(1.461609955212E2,6.499200057983E1,1.840352299278E-1));
#74=LINE('',#73,#72);
#75=DIRECTION('',(1.192487322949E-8,-1.E0,0.E0));
#76=VECTOR('',#75,4.362400054932E1);
#77=CARTESIAN_POINT('',(1.461609958395E2,6.499200057983E1,-7.096364997533E0));
#78=LINE('',#77,#76);
#79=DIRECTION('',(-4.371140798984E-8,0.E0,1.E0));
#80=VECTOR('',#79,7.280400227461E0);
#81=CARTESIAN_POINT('',(1.461609963597E2,2.136800003052E1,-7.096364997533E0));
#82=LINE('',#81,#80);
#83=DIRECTION('',(1.192487418465E-8,-1.E0,0.E0));
#84=VECTOR('',#83,4.000000377291E0);
#85=CARTESIAN_POINT('',(1.461609959461E2,1.836800003052E1,3.184035229928E0));
#86=LINE('',#85,#84);
#87=DIRECTION('',(-1.E0,-1.192487442125E-8,-4.371140782666E-8));
#88=VECTOR('',#87,2.E0);
#89=CARTESIAN_POINT('',(1.461609957845E2,1.486800003052E1,7.834035229928E0));
#90=LINE('',#89,#88);
#91=DIRECTION('',(-1.E0,-1.192487442125E-8,-4.371140738257E-8));
#92=VECTOR('',#91,2.E0);
#93=CARTESIAN_POINT('',(1.461609959288E2,1.486800003052E1,4.534035229928E0));
#94=LINE('',#93,#92);
#95=CARTESIAN_POINT('',(1.441609958567E2,1.486800000667E1,6.184035142505E0));
#96=DIRECTION('',(1.E0,1.192487299576E-8,4.371140766226E-8));
#97=DIRECTION('',(-4.371140055975E-8,0.E0,1.E0));
#98=AXIS2_PLACEMENT_3D('',#95,#96,#97);
#100=CARTESIAN_POINT('',(1.441609958567E2,1.486800000667E1,6.184035142505E0));
#101=DIRECTION('',(1.E0,1.192487299576E-8,4.371140766226E-8));
#102=DIRECTION('',(4.371140055975E-8,0.E0,-1.E0));
#103=AXIS2_PLACEMENT_3D('',#100,#101,#102);
#105=CARTESIAN_POINT('',(1.441609951812E2,7.151288600619E1,6.184035142505E0));
#106=DIRECTION('',(1.E0,1.192487299576E-8,4.371140766226E-8));
#107=DIRECTION('',(-4.371140055975E-8,0.E0,1.E0));
#108=AXIS2_PLACEMENT_3D('',#105,#106,#107);
#110=CARTESIAN_POINT('',(1.441609951812E2,7.151288600619E1,6.184035142505E0));
#111=DIRECTION('',(1.E0,1.192487299576E-8,4.371140766226E-8));
#112=DIRECTION('',(4.371140055975E-8,0.E0,-1.E0));
#113=AXIS2_PLACEMENT_3D('',#110,#111,#112);
#115=DIRECTION('',(4.371140888043E-8,1.748454693270E-7,-1.E0));
#116=VECTOR('',#115,5.9E0);
#117=CARTESIAN_POINT('',(1.441609955938E2,2.310999983708E1,9.949994758348E0));
#118=LINE('',#117,#116);
#119=DIRECTION('',(1.192487930962E-8,-1.E0,-1.748454684167E-7));
#120=VECTOR('',#119,3.414E1);
#121=CARTESIAN_POINT('',(1.441609950197E2,6.024999931254E1,1.295000125211E1));
#122=LINE('',#121,#120);
#123=DIRECTION('',(-4.371140888043E-8,-1.748454705313E-7,1.E0));
#124=VECTOR('',#123,5.9E0);
#125=CARTESIAN_POINT('',(1.441609953730E2,6.325000086867E1,4.050001776645E0));
#126=LINE('',#125,#124);
#127=DIRECTION('',(-1.192488097463E-8,1.E0,1.748454674216E-7));
#128=VECTOR('',#127,3.414E1);
#129=CARTESIAN_POINT('',(1.441609959470E2,2.611000139321E1,1.049995282885E0));
#130=LINE('',#129,#128);
#131=CARTESIAN_POINT('',(1.441609958626E2,1.436799962938E1,6.184035142505E0));
#132=DIRECTION('',(1.E0,1.192487288442E-8,4.371140764798E-8));
#133=DIRECTION('',(-4.371140486607E-8,0.E0,1.E0));
#134=AXIS2_PLACEMENT_3D('',#131,#132,#133);
#136=DIRECTION('',(1.192486707922E-8,-1.E0,0.E0));
#137=VECTOR('',#136,4.000000377291E0);
#138=CARTESIAN_POINT('',(1.441609959461E2,1.836800000667E1,3.184035142505E0));
#139=LINE('',#138,#137);
#140=DIRECTION('',(-4.371140798984E-8,0.E0,1.E0));
#141=VECTOR('',#140,7.280400227461E0);
#142=CARTESIAN_POINT('',(1.441609963597E2,2.136800000667E1,-7.096365084956E0));
#143=LINE('',#142,#141);
#144=DIRECTION('',(1.192487322949E-8,-1.E0,0.E0));
#145=VECTOR('',#144,4.362400054932E1);
#146=CARTESIAN_POINT('',(1.441609958395E2,6.499200055598E1,-7.096365084956E0));
#147=LINE('',#146,#145);
#148=DIRECTION('',(4.371141189371E-8,0.E0,-1.E0));
#149=VECTOR('',#148,7.280400227461E0);
#150=CARTESIAN_POINT('',(1.441609955212E2,6.499200055598E1,1.840351425050E-1));
#151=LINE('',#150,#149);
#152=DIRECTION('',(1.192488129007E-8,-1.E0,0.E0));
#153=VECTOR('',#152,4.000000377291E0);
#154=CARTESIAN_POINT('',(1.441609953066E2,7.199200093328E1,3.184035142505E0));
#155=LINE('',#154,#153);
#156=CARTESIAN_POINT('',(1.441609951755E2,7.199200093328E1,6.184035142505E0));
#157=DIRECTION('',(1.E0,1.192487251820E-8,4.371140764798E-8));
#158=DIRECTION('',(4.371140486607E-8,0.E0,-1.E0));
#159=AXIS2_PLACEMENT_3D('',#156,#157,#158);
#161=DIRECTION('',(-1.192488129007E-8,1.E0,0.E0));
#162=VECTOR('',#161,4.000000377291E0);
#163=CARTESIAN_POINT('',(1.441609950920E2,6.799200055598E1,9.184035142505E0));
#164=LINE('',#163,#162);
#165=DIRECTION('',(4.371140798984E-8,0.E0,-1.E0));
#166=VECTOR('',#165,7.280400227461E0);
#167=CARTESIAN_POINT('',(1.441609946784E2,6.499200055598E1,1.946443536997E1));
#168=LINE('',#167,#166);
#169=DIRECTION('',(-1.192487257797E-8,1.E0,0.E0));
#170=VECTOR('',#169,4.362400054932E1);
#171=CARTESIAN_POINT('',(1.441609951987E2,2.136800000667E1,1.946443536997E1));
#172=LINE('',#171,#170);
#173=DIRECTION('',(-4.371141189371E-8,0.E0,1.E0));
#174=VECTOR('',#173,7.280400227461E0);
#175=CARTESIAN_POINT('',(1.441609955169E2,2.136800000667E1,1.218403514250E1));
#176=LINE('',#175,#174);
#177=DIRECTION('',(-1.192486707922E-8,1.E0,0.E0));
#178=VECTOR('',#177,4.000000377291E0);
#179=CARTESIAN_POINT('',(1.441609957315E2,1.436799962938E1,9.184035142505E0));
#180=LINE('',#179,#178);
#181=DIRECTION('',(-1.E0,-1.192487530943E-8,-4.371140827075E-8));
#182=VECTOR('',#181,2.E0);
#183=CARTESIAN_POINT('',(1.461609951091E2,7.151288603004E1,7.834035229928E0));
#184=LINE('',#183,#182);
#185=DIRECTION('',(-1.E0,-1.192487530943E-8,-4.371140782666E-8));
#186=VECTOR('',#185,2.E0);
#187=CARTESIAN_POINT('',(1.461609952533E2,7.151288603004E1,4.534035229928E0));
#188=LINE('',#187,#186);
#189=DIRECTION('',(-1.E0,-1.192487353308E-8,-4.371140693848E-8));
#190=VECTOR('',#189,2.E0);
#191=CARTESIAN_POINT('',(1.461609955938E2,2.310999986093E1,9.949994845771E0));
#192=LINE('',#191,#190);
#193=DIRECTION('',(-1.E0,-1.192487175672E-8,-4.371140738257E-8));
#194=VECTOR('',#193,2.E0);
#195=CARTESIAN_POINT('',(1.461609958517E2,2.311000089252E1,4.049994845771E0));
#196=LINE('',#195,#194);
#197=CARTESIAN_POINT('',(1.461609955580E2,2.610999986093E1,9.949995370307E0));
#198=DIRECTION('',(-1.E0,-1.192487288442E-8,-4.371140755642E-8));
#199=DIRECTION('',(1.192487767791E-8,-1.E0,-1.748454791321E-7));
#200=AXIS2_PLACEMENT_3D('',#197,#198,#199);
#202=CARTESIAN_POINT('',(1.441609955580E2,2.610999983708E1,9.949995282884E0));
#203=DIRECTION('',(1.E0,1.192487288442E-8,4.371140755642E-8));
#204=DIRECTION('',(-4.371140486607E-8,-1.748454489340E-7,1.E0));
#205=AXIS2_PLACEMENT_3D('',#202,#203,#204);
#207=DIRECTION('',(-1.E0,-1.192486998036E-8,-4.371140693848E-8));
#208=VECTOR('',#207,2.E0);
#209=CARTESIAN_POINT('',(1.461609954269E2,2.610999933639E1,1.294999537031E1));
#210=LINE('',#209,#208);
#211=DIRECTION('',(-1.E0,-1.192487175672E-8,-4.371140693848E-8));
#212=VECTOR('',#211,2.E0);
#213=CARTESIAN_POINT('',(1.461609950197E2,6.024999933639E1,1.295000133953E1));
#214=LINE('',#213,#212);
#215=CARTESIAN_POINT('',(1.461609951509E2,6.024999986093E1,9.950001339532E0));
#216=DIRECTION('',(-1.E0,-1.192487325064E-8,-4.371140773953E-8));
#217=DIRECTION('',(-4.371140486607E-8,-1.748454820927E-7,1.E0));
#218=AXIS2_PLACEMENT_3D('',#215,#216,#217);
#220=CARTESIAN_POINT('',(1.441609951509E2,6.024999983708E1,9.950001252109E0));
#221=DIRECTION('',(1.E0,1.192487325064E-8,4.371140773953E-8));
#222=DIRECTION('',(-1.192487767791E-8,1.E0,1.748455034090E-7));
#223=AXIS2_PLACEMENT_3D('',#220,#221,#222);
#225=DIRECTION('',(-1.E0,-1.192487175672E-8,-4.371140782666E-8));
#226=VECTOR('',#225,2.E0);
#227=CARTESIAN_POINT('',(1.461609953730E2,6.325000089252E1,4.050001864068E0));
#228=LINE('',#227,#226);
#229=DIRECTION('',(-1.E0,-1.192487175672E-8,-4.371140960302E-8));
#230=VECTOR('',#229,2.E0);
#231=CARTESIAN_POINT('',(1.461609951151E2,6.324999986093E1,9.950001864068E0));
#232=LINE('',#231,#230);
#233=CARTESIAN_POINT('',(1.461609954088E2,6.025000089252E1,4.050001339532E0));
#234=DIRECTION('',(-1.E0,-1.192487325064E-8,-4.371140755642E-8));
#235=DIRECTION('',(-1.192487767791E-8,1.E0,1.748454320586E-7));
#236=AXIS2_PLACEMENT_3D('',#233,#234,#235);
#238=CARTESIAN_POINT('',(1.441609954088E2,6.025000086867E1,4.050001252109E0));
#239=DIRECTION('',(1.E0,1.192487325064E-8,4.371140755642E-8));
#240=DIRECTION('',(4.371140486607E-8,1.748454749873E-7,-1.E0));
#241=AXIS2_PLACEMENT_3D('',#238,#239,#240);
#243=DIRECTION('',(-1.E0,-1.192486820401E-8,-4.371140760462E-8));
#244=VECTOR('',#243,2.E0);
#245=CARTESIAN_POINT('',(1.461609955399E2,6.025000141706E1,1.050001339532E0));
#246=LINE('',#245,#244);
#247=DIRECTION('',(-1.E0,-1.192487353308E-8,-4.371140771564E-8));
#248=VECTOR('',#247,2.E0);
#249=CARTESIAN_POINT('',(1.461609959470E2,2.611000141706E1,1.049995370307E0));
#250=LINE('',#249,#248);
#251=CARTESIAN_POINT('',(1.461609958159E2,2.611000089252E1,4.049995370307E0));
#252=DIRECTION('',(-1.E0,-1.192487288442E-8,-4.371140764798E-8));
#253=DIRECTION('',(4.371140486607E-8,1.748454666976E-7,-1.E0));
#254=AXIS2_PLACEMENT_3D('',#251,#252,#253);
#256=CARTESIAN_POINT('',(1.441609958159E2,2.611000086867E1,4.049995282885E0));
#257=DIRECTION('',(1.E0,1.192487288442E-8,4.371140764798E-8));
#258=DIRECTION('',(1.192487767791E-8,-1.E0,-1.748454604803E-7));
#259=AXIS2_PLACEMENT_3D('',#256,#257,#258);
#261=DIRECTION('',(1.E0,1.192487530943E-8,4.371140782666E-8));
#262=VECTOR('',#261,2.E0);
#263=CARTESIAN_POINT('',(1.441609957315E2,1.436799962938E1,9.184035142505E0));
#264=LINE('',#263,#262);
#265=DIRECTION('',(-1.E0,-1.192487353308E-8,-4.371140693848E-8));
#266=VECTOR('',#265,2.E0);
#267=CARTESIAN_POINT('',(1.461609956838E2,1.836800003052E1,9.184035229928E0));
#268=LINE('',#267,#266);
#269=CARTESIAN_POINT('',(1.461609955527E2,1.836800003052E1,1.218403522993E1));
#270=DIRECTION('',(-1.E0,-1.192487288442E-8,-4.371140755642E-8));
#271=DIRECTION('',(-1.192486820401E-8,1.E0,-1.302661682227E-14));
#272=AXIS2_PLACEMENT_3D('',#269,#270,#271);
#274=CARTESIAN_POINT('',(1.441609955527E2,1.836800000667E1,1.218403514250E1));
#275=DIRECTION('',(1.E0,1.192487288442E-8,4.371140755642E-8));
#276=DIRECTION('',(4.371140486607E-8,1.302661682227E-14,-1.E0));
#277=AXIS2_PLACEMENT_3D('',#274,#275,#276);
#279=DIRECTION('',(-1.E0,-1.192487530943E-8,-4.371140871484E-8));
#280=VECTOR('',#279,2.E0);
#281=CARTESIAN_POINT('',(1.461609955169E2,2.136800003052E1,1.218403522993E1));
#282=LINE('',#281,#280);
#283=DIRECTION('',(-1.E0,-1.192487530943E-8,-4.371140782666E-8));
#284=VECTOR('',#283,2.E0);
#285=CARTESIAN_POINT('',(1.461609951987E2,2.136800003052E1,1.946443545739E1));
#286=LINE('',#285,#284);
#287=DIRECTION('',(-1.E0,-1.192487530943E-8,-4.371140871484E-8));
#288=VECTOR('',#287,2.E0);
#289=CARTESIAN_POINT('',(1.461609949967E2,6.499200057983E1,1.218403522993E1));
#290=LINE('',#289,#288);
#291=DIRECTION('',(-1.E0,-1.192486820401E-8,-4.371140782666E-8));
#292=VECTOR('',#291,2.E0);
#293=CARTESIAN_POINT('',(1.461609946784E2,6.499200057983E1,1.946443545739E1));
#294=LINE('',#293,#292);
#295=CARTESIAN_POINT('',(1.461609949609E2,6.799200057983E1,1.218403522993E1));
#296=DIRECTION('',(-1.E0,-1.192487251820E-8,-4.371140773953E-8));
#297=DIRECTION('',(4.371140486607E-8,-1.894780628694E-14,-1.E0));
#298=AXIS2_PLACEMENT_3D('',#295,#296,#297);
#300=CARTESIAN_POINT('',(1.441609949609E2,6.799200055598E1,1.218403514250E1));
#301=DIRECTION('',(1.E0,1.192487251820E-8,4.371140773953E-8));
#302=DIRECTION('',(1.192486820401E-8,-1.E0,3.019806626980E-14));
#303=AXIS2_PLACEMENT_3D('',#300,#301,#302);
#305=DIRECTION('',(1.E0,1.192487530943E-8,4.371140693848E-8));
#306=VECTOR('',#305,2.E0);
#307=CARTESIAN_POINT('',(1.441609950443E2,7.199200093328E1,9.184035142505E0));
#308=LINE('',#307,#306);
#309=DIRECTION('',(-1.E0,-1.192487530943E-8,-4.371140605031E-8));
#310=VECTOR('',#309,2.E0);
#311=CARTESIAN_POINT('',(1.461609950920E2,6.799200057983E1,9.184035229928E0));
#312=LINE('',#311,#310);
#313=DIRECTION('',(1.E0,1.192487530943E-8,4.371140738257E-8));
#314=VECTOR('',#313,2.E0);
#315=CARTESIAN_POINT('',(1.441609953066E2,7.199200093328E1,3.184035142505E0));
#316=LINE('',#315,#314);
#317=DIRECTION('',(-1.E0,-1.192487530943E-8,-4.371140738257E-8));
#318=VECTOR('',#317,2.E0);
#319=CARTESIAN_POINT('',(1.461609953543E2,6.799200057983E1,3.184035229928E0));
#320=LINE('',#319,#318);
#321=CARTESIAN_POINT('',(1.461609954854E2,6.799200057983E1,1.840352299278E-1));
#322=DIRECTION('',(-1.E0,-1.192487398307E-8,-4.371140764512E-8));
#323=DIRECTION('',(1.192487767791E-8,-1.E0,-3.278858666060E-14));
#324=AXIS2_PLACEMENT_3D('',#321,#322,#323);
#326=CARTESIAN_POINT('',(1.441609954854E2,6.799200055598E1,1.840351425050E-1));
#327=DIRECTION('',(1.E0,1.192487398307E-8,4.371140764512E-8));
#328=DIRECTION('',(-4.371140486607E-8,0.E0,1.E0));
#329=AXIS2_PLACEMENT_3D('',#326,#327,#328);
#331=DIRECTION('',(-1.E0,-1.192486820401E-8,-4.371140763237E-8));
#332=VECTOR('',#331,2.E0);
#333=CARTESIAN_POINT('',(1.461609955212E2,6.499200057983E1,1.840352299278E-1));
#334=LINE('',#333,#332);
#335=DIRECTION('',(-1.E0,-1.192487530943E-8,-4.371140827075E-8));
#336=VECTOR('',#335,2.E0);
#337=CARTESIAN_POINT('',(1.461609958395E2,6.499200057983E1,-7.096364997533E0));
#338=LINE('',#337,#336);
#339=DIRECTION('',(-1.E0,-1.192487353308E-8,-4.371140778503E-8));
#340=VECTOR('',#339,2.E0);
#341=CARTESIAN_POINT('',(1.461609960414E2,2.136800003052E1,1.840352299278E-1));
#342=LINE('',#341,#340);
#343=DIRECTION('',(-1.E0,-1.192487353308E-8,-4.371140782666E-8));
#344=VECTOR('',#343,2.E0);
#345=CARTESIAN_POINT('',(1.461609963597E2,2.136800003052E1,-7.096364997533E0));
#346=LINE('',#345,#344);
#347=CARTESIAN_POINT('',(1.461609960772E2,1.836800003052E1,1.840352299278E-1));
#348=DIRECTION('',(-1.E0,-1.192487288442E-8,-4.371140770806E-8));
#349=DIRECTION('',(-4.371140486607E-8,0.E0,1.E0));
#350=AXIS2_PLACEMENT_3D('',#347,#348,#349);
#352=CARTESIAN_POINT('',(1.441609960772E2,1.836800000667E1,1.840351425050E-1));
#353=DIRECTION('',(1.E0,1.192487288442E-8,4.371140770806E-8));
#354=DIRECTION('',(-1.192486820401E-8,1.E0,0.E0));
#355=AXIS2_PLACEMENT_3D('',#352,#353,#354);
#357=DIRECTION('',(1.E0,1.192487353308E-8,4.371140716053E-8));
#358=VECTOR('',#357,2.E0);
#359=CARTESIAN_POINT('',(1.441609959938E2,1.436799962938E1,3.184035142505E0));
#360=LINE('',#359,#358);
#361=DIRECTION('',(-1.E0,-1.192487530943E-8,-4.371140804871E-8));
#362=VECTOR('',#361,2.E0);
#363=CARTESIAN_POINT('',(1.461609959461E2,1.836800003052E1,3.184035229928E0));
#364=LINE('',#363,#362);
#365=CARTESIAN_POINT('',(1.461609957846E2,1.486800003052E1,7.834035229928E0));
#366=CARTESIAN_POINT('',(1.461609959288E2,1.486800003052E1,4.534035229928E0));
#367=VERTEX_POINT('',#365);
#368=VERTEX_POINT('',#366);
#369=CARTESIAN_POINT('',(1.461609951091E2,7.151288603004E1,7.834035229928E0));
#370=CARTESIAN_POINT('',(1.461609952533E2,7.151288603004E1,4.534035229928E0));
#371=VERTEX_POINT('',#369);
#372=VERTEX_POINT('',#370);
#373=CARTESIAN_POINT('',(1.461609951987E2,2.136800003052E1,1.946443545739E1));
#374=CARTESIAN_POINT('',(1.461609946784E2,6.499200057983E1,1.946443545739E1));
#375=VERTEX_POINT('',#373);
#376=VERTEX_POINT('',#374);
#377=CARTESIAN_POINT('',(1.461609958395E2,6.499200057983E1,-7.096364997533E0));
#378=CARTESIAN_POINT('',(1.461609963597E2,2.136800003052E1,-7.096364997533E0));
#379=VERTEX_POINT('',#377);
#380=VERTEX_POINT('',#378);
#381=CARTESIAN_POINT('',(1.441609957846E2,1.486800000667E1,7.834035142505E0));
#382=CARTESIAN_POINT('',(1.441609959288E2,1.486800000667E1,4.534035142505E0));
#383=VERTEX_POINT('',#381);
#384=VERTEX_POINT('',#382);
#385=CARTESIAN_POINT('',(1.441609951091E2,7.151288600619E1,7.834035142505E0));
#386=CARTESIAN_POINT('',(1.441609952533E2,7.151288600619E1,4.534035142505E0));
#387=VERTEX_POINT('',#385);
#388=VERTEX_POINT('',#386);
#389=CARTESIAN_POINT('',(1.441609951987E2,2.136800000667E1,1.946443536997E1));
#390=CARTESIAN_POINT('',(1.441609946784E2,6.499200055598E1,1.946443536997E1));
#391=VERTEX_POINT('',#389);
#392=VERTEX_POINT('',#390);
#393=CARTESIAN_POINT('',(1.441609958395E2,6.499200055598E1,-7.096365084956E0));
#394=CARTESIAN_POINT('',(1.441609963597E2,2.136800000667E1,-7.096365084956E0));
#395=VERTEX_POINT('',#393);
#396=VERTEX_POINT('',#394);
#397=CARTESIAN_POINT('',(1.461609955212E2,6.499200057983E1,1.840352299278E-1));
#398=CARTESIAN_POINT('',(1.441609955212E2,6.499200055598E1,1.840351425050E-1));
#399=VERTEX_POINT('',#397);
#400=VERTEX_POINT('',#398);
#401=CARTESIAN_POINT('',(1.461609953543E2,6.799200057983E1,3.184035229928E0));
#402=CARTESIAN_POINT('',(1.441609953543E2,6.799200055598E1,3.184035142505E0));
#403=VERTEX_POINT('',#401);
#404=VERTEX_POINT('',#402);
#405=CARTESIAN_POINT('',(1.461609950920E2,6.799200057983E1,9.184035229928E0));
#406=CARTESIAN_POINT('',(1.441609950920E2,6.799200055598E1,9.184035142505E0));
#407=VERTEX_POINT('',#405);
#408=VERTEX_POINT('',#406);
#409=CARTESIAN_POINT('',(1.461609949967E2,6.499200057983E1,1.218403522993E1));
#410=CARTESIAN_POINT('',(1.441609949967E2,6.499200055598E1,1.218403514250E1));
#411=VERTEX_POINT('',#409);
#412=VERTEX_POINT('',#410);
#413=CARTESIAN_POINT('',(1.461609955169E2,2.136800003052E1,1.218403522993E1));
#414=CARTESIAN_POINT('',(1.441609955169E2,2.136800000667E1,1.218403514250E1));
#415=VERTEX_POINT('',#413);
#416=VERTEX_POINT('',#414);
#417=CARTESIAN_POINT('',(1.461609956838E2,1.836800003052E1,9.184035229928E0));
#418=CARTESIAN_POINT('',(1.441609956838E2,1.836800000667E1,9.184035142505E0));
#419=VERTEX_POINT('',#417);
#420=VERTEX_POINT('',#418);
#421=CARTESIAN_POINT('',(1.461609959461E2,1.836800003052E1,3.184035229928E0));
#422=CARTESIAN_POINT('',(1.441609959461E2,1.836800000667E1,3.184035142505E0));
#423=VERTEX_POINT('',#421);
#424=VERTEX_POINT('',#422);
#425=CARTESIAN_POINT('',(1.461609960414E2,2.136800003052E1,1.840352299278E-1));
#426=CARTESIAN_POINT('',(1.441609960414E2,2.136800000667E1,1.840351425050E-1));
#427=VERTEX_POINT('',#425);
#428=VERTEX_POINT('',#426);
#429=CARTESIAN_POINT('',(1.461609955938E2,2.310999986093E1,9.949994845771E0));
#430=CARTESIAN_POINT('',(1.441609955938E2,2.310999983708E1,9.949994758348E0));
#431=VERTEX_POINT('',#429);
#432=VERTEX_POINT('',#430);
#433=CARTESIAN_POINT('',(1.461609954269E2,2.610999933639E1,1.294999537031E1));
#434=CARTESIAN_POINT('',(1.441609954269E2,2.610999931255E1,1.294999528288E1));
#435=VERTEX_POINT('',#433);
#436=VERTEX_POINT('',#434);
#437=CARTESIAN_POINT('',(1.461609953730E2,6.325000089252E1,4.050001864068E0));
#438=CARTESIAN_POINT('',(1.441609953730E2,6.325000086867E1,4.050001776645E0));
#439=VERTEX_POINT('',#437);
#440=VERTEX_POINT('',#438);
#441=CARTESIAN_POINT('',(1.461609955399E2,6.025000141706E1,1.050001339532E0));
#442=CARTESIAN_POINT('',(1.441609955399E2,6.025000139321E1,1.050001252109E0));
#443=VERTEX_POINT('',#441);
#444=VERTEX_POINT('',#442);
#445=CARTESIAN_POINT('',(1.461609950197E2,6.024999933639E1,1.295000133953E1));
#446=CARTESIAN_POINT('',(1.441609950197E2,6.024999931254E1,1.295000125211E1));
#447=VERTEX_POINT('',#445);
#448=VERTEX_POINT('',#446);
#449=CARTESIAN_POINT('',(1.461609951151E2,6.324999986093E1,9.950001864068E0));
#450=CARTESIAN_POINT('',(1.441609951151E2,6.324999983708E1,9.950001776645E0));
#451=VERTEX_POINT('',#449);
#452=VERTEX_POINT('',#450);
#453=CARTESIAN_POINT('',(1.461609959470E2,2.611000141706E1,1.049995370307E0));
#454=CARTESIAN_POINT('',(1.441609959470E2,2.611000139321E1,1.049995282885E0));
#455=VERTEX_POINT('',#453);
#456=VERTEX_POINT('',#454);
#457=CARTESIAN_POINT('',(1.461609958517E2,2.311000089252E1,4.049994845771E0));
#458=CARTESIAN_POINT('',(1.441609958517E2,2.311000086867E1,4.049994758348E0));
#459=VERTEX_POINT('',#457);
#460=VERTEX_POINT('',#458);
#461=CARTESIAN_POINT('',(1.441609957315E2,1.436799962938E1,9.184035142505E0));
#462=CARTESIAN_POINT('',(1.441609959938E2,1.436799962938E1,3.184035142505E0));
#463=VERTEX_POINT('',#461);
#464=VERTEX_POINT('',#462);
#465=CARTESIAN_POINT('',(1.461609957315E2,1.436799965323E1,9.184035229928E0));
#466=VERTEX_POINT('',#465);
#467=CARTESIAN_POINT('',(1.461609959938E2,1.436799965323E1,3.184035229928E0));
#468=VERTEX_POINT('',#467);
#469=CARTESIAN_POINT('',(1.461609950443E2,7.199200095712E1,9.184035229928E0));
#470=CARTESIAN_POINT('',(1.461609953066E2,7.199200095712E1,3.184035229928E0));
#471=VERTEX_POINT('',#469);
#472=VERTEX_POINT('',#470);
#473=CARTESIAN_POINT('',(1.441609950443E2,7.199200093328E1,9.184035142505E0));
#474=VERTEX_POINT('',#473);
#475=CARTESIAN_POINT('',(1.441609953066E2,7.199200093328E1,3.184035142505E0));
#476=VERTEX_POINT('',#475);
#477=CARTESIAN_POINT('',(1.461609963043E2,1.742951319272E-6,6.388902893839E-6));
#478=DIRECTION('',(-1.E0,-1.192487299576E-8,-4.371140766226E-8));
#479=DIRECTION('',(-4.371140766226E-8,0.E0,1.E0));
#480=AXIS2_PLACEMENT_3D('',#477,#478,#479);
#481=PLANE('',#480);
#483=ORIENTED_EDGE('',*,*,#482,.T.);
#485=ORIENTED_EDGE('',*,*,#484,.T.);
#487=ORIENTED_EDGE('',*,*,#486,.F.);
#489=ORIENTED_EDGE('',*,*,#488,.T.);
#491=ORIENTED_EDGE('',*,*,#490,.T.);
#493=ORIENTED_EDGE('',*,*,#492,.T.);
#495=ORIENTED_EDGE('',*,*,#494,.F.);
#497=ORIENTED_EDGE('',*,*,#496,.T.);
#499=ORIENTED_EDGE('',*,*,#498,.T.);
#501=ORIENTED_EDGE('',*,*,#500,.T.);
#503=ORIENTED_EDGE('',*,*,#502,.F.);
#505=ORIENTED_EDGE('',*,*,#504,.T.);
#507=ORIENTED_EDGE('',*,*,#506,.T.);
#509=ORIENTED_EDGE('',*,*,#508,.T.);
#511=ORIENTED_EDGE('',*,*,#510,.F.);
#513=ORIENTED_EDGE('',*,*,#512,.T.);
#514=EDGE_LOOP('',(#483,#485,#487,#489,#491,#493,#495,#497,#499,#501,#503,#505,
#507,#509,#511,#513));
#515=FACE_OUTER_BOUND('',#514,.F.);
#517=ORIENTED_EDGE('',*,*,#516,.T.);
#519=ORIENTED_EDGE('',*,*,#518,.T.);
#520=EDGE_LOOP('',(#517,#519));
#521=FACE_BOUND('',#520,.F.);
#523=ORIENTED_EDGE('',*,*,#522,.T.);
#525=ORIENTED_EDGE('',*,*,#524,.F.);
#527=ORIENTED_EDGE('',*,*,#526,.T.);
#529=ORIENTED_EDGE('',*,*,#528,.F.);
#531=ORIENTED_EDGE('',*,*,#530,.T.);
#533=ORIENTED_EDGE('',*,*,#532,.F.);
#535=ORIENTED_EDGE('',*,*,#534,.T.);
#537=ORIENTED_EDGE('',*,*,#536,.F.);
#538=EDGE_LOOP('',(#523,#525,#527,#529,#531,#533,#535,#537));
#539=FACE_BOUND('',#538,.F.);
#541=ORIENTED_EDGE('',*,*,#540,.T.);
#543=ORIENTED_EDGE('',*,*,#542,.T.);
#544=EDGE_LOOP('',(#541,#543));
#545=FACE_BOUND('',#544,.F.);
#546=ADVANCED_FACE('',(#515,#521,#539,#545),#481,.F.);
#547=CARTESIAN_POINT('',(1.461609958567E2,1.486800003052E1,6.184035229928E0));
#548=DIRECTION('',(-1.E0,-1.192487299576E-8,-4.371140766226E-8));
#549=DIRECTION('',(-4.371140766226E-8,0.E0,1.E0));
#550=AXIS2_PLACEMENT_3D('',#547,#548,#549);
#551=CYLINDRICAL_SURFACE('',#550,1.65E0);
#552=ORIENTED_EDGE('',*,*,#540,.F.);
#554=ORIENTED_EDGE('',*,*,#553,.T.);
#556=ORIENTED_EDGE('',*,*,#555,.T.);
#558=ORIENTED_EDGE('',*,*,#557,.F.);
#559=EDGE_LOOP('',(#552,#554,#556,#558));
#560=FACE_OUTER_BOUND('',#559,.F.);
#561=ADVANCED_FACE('',(#560),#551,.F.);
#562=CARTESIAN_POINT('',(1.461609958567E2,1.486800003052E1,6.184035229928E0));
#563=DIRECTION('',(-1.E0,-1.192487299576E-8,-4.371140766226E-8));
#564=DIRECTION('',(-4.371140766226E-8,0.E0,1.E0));
#565=AXIS2_PLACEMENT_3D('',#562,#563,#564);
#566=CYLINDRICAL_SURFACE('',#565,1.65E0);
#567=ORIENTED_EDGE('',*,*,#542,.F.);
#568=ORIENTED_EDGE('',*,*,#557,.T.);
#570=ORIENTED_EDGE('',*,*,#569,.T.);
#571=ORIENTED_EDGE('',*,*,#553,.F.);
#572=EDGE_LOOP('',(#567,#568,#570,#571));
#573=FACE_OUTER_BOUND('',#572,.F.);
#574=ADVANCED_FACE('',(#573),#566,.F.);
#575=CARTESIAN_POINT('',(1.441609963043E2,1.719101573281E-6,6.301480078515E-6));
#576=DIRECTION('',(-1.E0,-1.192487299576E-8,-4.371140766226E-8));
#577=DIRECTION('',(-4.371140766226E-8,0.E0,1.E0));
#578=AXIS2_PLACEMENT_3D('',#575,#576,#577);
#579=PLANE('',#578);
#581=ORIENTED_EDGE('',*,*,#580,.T.);
#583=ORIENTED_EDGE('',*,*,#582,.F.);
#585=ORIENTED_EDGE('',*,*,#584,.F.);
#587=ORIENTED_EDGE('',*,*,#586,.F.);
#589=ORIENTED_EDGE('',*,*,#588,.F.);
#591=ORIENTED_EDGE('',*,*,#590,.F.);
#593=ORIENTED_EDGE('',*,*,#592,.F.);
#595=ORIENTED_EDGE('',*,*,#594,.F.);
#597=ORIENTED_EDGE('',*,*,#596,.T.);
#599=ORIENTED_EDGE('',*,*,#598,.F.);
#601=ORIENTED_EDGE('',*,*,#600,.F.);
#603=ORIENTED_EDGE('',*,*,#602,.F.);
#605=ORIENTED_EDGE('',*,*,#604,.F.);
#607=ORIENTED_EDGE('',*,*,#606,.F.);
#609=ORIENTED_EDGE('',*,*,#608,.F.);
#611=ORIENTED_EDGE('',*,*,#610,.F.);
#612=EDGE_LOOP('',(#581,#583,#585,#587,#589,#591,#593,#595,#597,#599,#601,#603,
#605,#607,#609,#611));
#613=FACE_OUTER_BOUND('',#612,.F.);
#615=ORIENTED_EDGE('',*,*,#614,.F.);
#617=ORIENTED_EDGE('',*,*,#616,.F.);
#618=EDGE_LOOP('',(#615,#617));
#619=FACE_BOUND('',#618,.F.);
#621=ORIENTED_EDGE('',*,*,#620,.F.);
#623=ORIENTED_EDGE('',*,*,#622,.F.);
#625=ORIENTED_EDGE('',*,*,#624,.F.);
#627=ORIENTED_EDGE('',*,*,#626,.F.);
#629=ORIENTED_EDGE('',*,*,#628,.F.);
#631=ORIENTED_EDGE('',*,*,#630,.F.);
#633=ORIENTED_EDGE('',*,*,#632,.F.);
#635=ORIENTED_EDGE('',*,*,#634,.F.);
#636=EDGE_LOOP('',(#621,#623,#625,#627,#629,#631,#633,#635));
#637=FACE_BOUND('',#636,.F.);
#638=ORIENTED_EDGE('',*,*,#555,.F.);
#639=ORIENTED_EDGE('',*,*,#569,.F.);
#640=EDGE_LOOP('',(#638,#639));
#641=FACE_BOUND('',#640,.F.);
#642=ADVANCED_FACE('',(#613,#619,#637,#641),#579,.T.);
#643=CARTESIAN_POINT('',(1.461609951812E2,7.151288603004E1,6.184035229928E0));
#644=DIRECTION('',(-1.E0,-1.192487299576E-8,-4.371140766226E-8));
#645=DIRECTION('',(-4.371140766226E-8,0.E0,1.E0));
#646=AXIS2_PLACEMENT_3D('',#643,#644,#645);
#647=CYLINDRICAL_SURFACE('',#646,1.65E0);
#648=ORIENTED_EDGE('',*,*,#516,.F.);
#650=ORIENTED_EDGE('',*,*,#649,.T.);
#651=ORIENTED_EDGE('',*,*,#614,.T.);
#653=ORIENTED_EDGE('',*,*,#652,.F.);
#654=EDGE_LOOP('',(#648,#650,#651,#653));
#655=FACE_OUTER_BOUND('',#654,.F.);
#656=ADVANCED_FACE('',(#655),#647,.F.);
#657=CARTESIAN_POINT('',(1.461609951812E2,7.151288603004E1,6.184035229928E0));
#658=DIRECTION('',(-1.E0,-1.192487299576E-8,-4.371140766226E-8));
#659=DIRECTION('',(-4.371140766226E-8,0.E0,1.E0));
#660=AXIS2_PLACEMENT_3D('',#657,#658,#659);
#661=CYLINDRICAL_SURFACE('',#660,1.65E0);
#662=ORIENTED_EDGE('',*,*,#518,.F.);
#663=ORIENTED_EDGE('',*,*,#652,.T.);
#664=ORIENTED_EDGE('',*,*,#616,.T.);
#665=ORIENTED_EDGE('',*,*,#649,.F.);
#666=EDGE_LOOP('',(#662,#663,#664,#665));
#667=FACE_OUTER_BOUND('',#666,.F.);
#668=ADVANCED_FACE('',(#667),#661,.F.);
#669=CARTESIAN_POINT('',(1.461609954626E2,2.310999933640E1,1.294999484577E1));
#670=DIRECTION('',(-1.192488063850E-8,1.E0,1.748454680771E-7));
#671=DIRECTION('',(4.371140557725E-8,1.748454685983E-7,-1.E0));
#672=AXIS2_PLACEMENT_3D('',#669,#670,#671);
#673=PLANE('',#672);
#675=ORIENTED_EDGE('',*,*,#674,.T.);
#676=ORIENTED_EDGE('',*,*,#620,.T.);
#678=ORIENTED_EDGE('',*,*,#677,.F.);
#679=ORIENTED_EDGE('',*,*,#526,.F.);
#680=EDGE_LOOP('',(#675,#676,#678,#679));
#681=FACE_OUTER_BOUND('',#680,.F.);
#682=ADVANCED_FACE('',(#681),#673,.T.);
#683=CARTESIAN_POINT('',(1.499705966732E2,2.610999990636E1,9.949995536830E0));
#684=DIRECTION('',(-1.E0,-1.192487288442E-8,-4.371140755642E-8));
#685=DIRECTION('',(1.192488052716E-8,-1.E0,-1.748454678818E-7));
#686=AXIS2_PLACEMENT_3D('',#683,#684,#685);
#687=CYLINDRICAL_SURFACE('',#686,3.E0);
#688=ORIENTED_EDGE('',*,*,#674,.F.);
#689=ORIENTED_EDGE('',*,*,#524,.T.);
#691=ORIENTED_EDGE('',*,*,#690,.T.);
#692=ORIENTED_EDGE('',*,*,#622,.T.);
#693=EDGE_LOOP('',(#688,#689,#691,#692));
#694=FACE_OUTER_BOUND('',#693,.F.);
#695=ADVANCED_FACE('',(#694),#687,.F.);
#696=CARTESIAN_POINT('',(1.461609949840E2,6.324999933639E1,1.295000186407E1));
#697=DIRECTION('',(4.371140557725E-8,1.748454689563E-7,-1.E0));
#698=DIRECTION('',(1.192488063850E-8,-1.E0,-1.748454684351E-7));
#699=AXIS2_PLACEMENT_3D('',#696,#697,#698);
#700=PLANE('',#699);
#701=ORIENTED_EDGE('',*,*,#690,.F.);
#702=ORIENTED_EDGE('',*,*,#522,.F.);
#704=ORIENTED_EDGE('',*,*,#703,.T.);
#705=ORIENTED_EDGE('',*,*,#624,.T.);
#706=EDGE_LOOP('',(#701,#702,#704,#705));
#707=FACE_OUTER_BOUND('',#706,.F.);
#708=ADVANCED_FACE('',(#707),#700,.T.);
#709=CARTESIAN_POINT('',(1.499705966732E2,6.024999990636E1,9.950001506055E0));
#710=DIRECTION('',(-1.E0,-1.192487325064E-8,-4.371140773953E-8));
#711=DIRECTION('',(-4.371140565452E-8,-1.748454678818E-7,1.E0));
#712=AXIS2_PLACEMENT_3D('',#709,#710,#711);
#713=CYLINDRICAL_SURFACE('',#712,3.E0);
#714=ORIENTED_EDGE('',*,*,#703,.F.);
#715=ORIENTED_EDGE('',*,*,#536,.T.);
#717=ORIENTED_EDGE('',*,*,#716,.T.);
#718=ORIENTED_EDGE('',*,*,#626,.T.);
#719=EDGE_LOOP('',(#714,#715,#717,#718));
#720=FACE_OUTER_BOUND('',#719,.F.);
#721=ADVANCED_FACE('',(#720),#713,.F.);
#722=CARTESIAN_POINT('',(1.461609955041E2,6.325000141706E1,1.050001864068E0));
#723=DIRECTION('',(1.192488063850E-8,-1.E0,-1.748454686742E-7));
#724=DIRECTION('',(-4.371140557725E-8,-1.748454691954E-7,1.E0));
#725=AXIS2_PLACEMENT_3D('',#722,#723,#724);
#726=PLANE('',#725);
#728=ORIENTED_EDGE('',*,*,#727,.T.);
#729=ORIENTED_EDGE('',*,*,#628,.T.);
#730=ORIENTED_EDGE('',*,*,#716,.F.);
#731=ORIENTED_EDGE('',*,*,#534,.F.);
#732=EDGE_LOOP('',(#728,#729,#730,#731));
#733=FACE_OUTER_BOUND('',#732,.F.);
#734=ADVANCED_FACE('',(#733),#726,.T.);
#735=CARTESIAN_POINT('',(1.499705966732E2,6.025000093795E1,4.050001506055E0));
#736=DIRECTION('',(-1.E0,-1.192487325064E-8,-4.371140755642E-8));
#737=DIRECTION('',(-1.192488089338E-8,1.E0,1.748454687700E-7));
#738=AXIS2_PLACEMENT_3D('',#735,#736,#737);
#739=CYLINDRICAL_SURFACE('',#738,3.E0);
#740=ORIENTED_EDGE('',*,*,#727,.F.);
#741=ORIENTED_EDGE('',*,*,#532,.T.);
#743=ORIENTED_EDGE('',*,*,#742,.T.);
#744=ORIENTED_EDGE('',*,*,#630,.T.);
#745=EDGE_LOOP('',(#740,#741,#743,#744));
#746=FACE_OUTER_BOUND('',#745,.F.);
#747=ADVANCED_FACE('',(#746),#739,.F.);
#748=CARTESIAN_POINT('',(1.461609959828E2,2.311000141706E1,1.049994845771E0));
#749=DIRECTION('',(-4.371140557725E-8,-1.748454679440E-7,1.E0));
#750=DIRECTION('',(-1.192488063850E-8,1.E0,1.748454674227E-7));
#751=AXIS2_PLACEMENT_3D('',#748,#749,#750);
#752=PLANE('',#751);
#753=ORIENTED_EDGE('',*,*,#742,.F.);
#754=ORIENTED_EDGE('',*,*,#530,.F.);
#756=ORIENTED_EDGE('',*,*,#755,.T.);
#757=ORIENTED_EDGE('',*,*,#632,.T.);
#758=EDGE_LOOP('',(#753,#754,#756,#757));
#759=FACE_OUTER_BOUND('',#758,.F.);
#760=ADVANCED_FACE('',(#759),#752,.T.);
#761=CARTESIAN_POINT('',(1.499705966732E2,2.611000093795E1,4.049995536830E0));
#762=DIRECTION('',(-1.E0,-1.192487288442E-8,-4.371140764798E-8));
#763=DIRECTION('',(4.371140556297E-8,1.748454678818E-7,-1.E0));
#764=AXIS2_PLACEMENT_3D('',#761,#762,#763);
#765=CYLINDRICAL_SURFACE('',#764,3.E0);
#766=ORIENTED_EDGE('',*,*,#755,.F.);
#767=ORIENTED_EDGE('',*,*,#528,.T.);
#768=ORIENTED_EDGE('',*,*,#677,.T.);
#769=ORIENTED_EDGE('',*,*,#634,.T.);
#770=EDGE_LOOP('',(#766,#767,#768,#769));
#771=FACE_OUTER_BOUND('',#770,.F.);
#772=ADVANCED_FACE('',(#771),#765,.F.);
#773=CARTESIAN_POINT('',(1.403513943649E2,1.436799958395E1,6.184034975982E0));
#774=DIRECTION('',(1.E0,1.192487288442E-8,4.371140764798E-8));
#775=DIRECTION('',(1.192487288442E-8,-1.E0,0.E0));
#776=AXIS2_PLACEMENT_3D('',#773,#774,#775);
#777=CYLINDRICAL_SURFACE('',#776,3.E0);
#778=ORIENTED_EDGE('',*,*,#580,.F.);
#780=ORIENTED_EDGE('',*,*,#779,.T.);
#781=ORIENTED_EDGE('',*,*,#482,.F.);
#783=ORIENTED_EDGE('',*,*,#782,.F.);
#784=EDGE_LOOP('',(#778,#780,#781,#783));
#785=FACE_OUTER_BOUND('',#784,.F.);
#786=ADVANCED_FACE('',(#785),#777,.T.);
#787=CARTESIAN_POINT('',(1.461609957673E2,1.136799965323E1,9.184035229928E0));
#788=DIRECTION('',(-4.371140766226E-8,0.E0,1.E0));
#789=DIRECTION('',(-1.192487299576E-8,1.E0,0.E0));
#790=AXIS2_PLACEMENT_3D('',#787,#788,#789);
#791=PLANE('',#790);
#792=ORIENTED_EDGE('',*,*,#779,.F.);
#793=ORIENTED_EDGE('',*,*,#610,.T.);
#795=ORIENTED_EDGE('',*,*,#794,.F.);
#796=ORIENTED_EDGE('',*,*,#484,.F.);
#797=EDGE_LOOP('',(#792,#793,#795,#796));
#798=FACE_OUTER_BOUND('',#797,.F.);
#799=ADVANCED_FACE('',(#798),#791,.T.);
#800=CARTESIAN_POINT('',(1.499705966732E2,1.836800007595E1,1.218403539645E1));
#801=DIRECTION('',(-1.E0,-1.192487288442E-8,-4.371140755642E-8));
#802=DIRECTION('',(-1.192487288442E-8,1.E0,0.E0));
#803=AXIS2_PLACEMENT_3D('',#800,#801,#802);
#804=CYLINDRICAL_SURFACE('',#803,3.E0);
#806=ORIENTED_EDGE('',*,*,#805,.F.);
#807=ORIENTED_EDGE('',*,*,#486,.T.);
#808=ORIENTED_EDGE('',*,*,#794,.T.);
#809=ORIENTED_EDGE('',*,*,#608,.T.);
#810=EDGE_LOOP('',(#806,#807,#808,#809));
#811=FACE_OUTER_BOUND('',#810,.F.);
#812=ADVANCED_FACE('',(#811),#804,.F.);
#813=CARTESIAN_POINT('',(1.461609956480E2,2.136800003052E1,9.184035229928E0));
#814=DIRECTION('',(1.192487299576E-8,-1.E0,0.E0));
#815=DIRECTION('',(-4.371140766226E-8,0.E0,1.E0));
#816=AXIS2_PLACEMENT_3D('',#813,#814,#815);
#817=PLANE('',#816);
#818=ORIENTED_EDGE('',*,*,#805,.T.);
#819=ORIENTED_EDGE('',*,*,#606,.T.);
#821=ORIENTED_EDGE('',*,*,#820,.F.);
#822=ORIENTED_EDGE('',*,*,#488,.F.);
#823=EDGE_LOOP('',(#818,#819,#821,#822));
#824=FACE_OUTER_BOUND('',#823,.F.);
#825=ADVANCED_FACE('',(#824),#817,.T.);
#826=CARTESIAN_POINT('',(1.461609951987E2,2.136800003052E1,1.946443545739E1));
#827=DIRECTION('',(-4.371140766226E-8,0.E0,1.E0));
#828=DIRECTION('',(-1.192487299576E-8,1.E0,0.E0));
#829=AXIS2_PLACEMENT_3D('',#826,#827,#828);
#830=PLANE('',#829);
#831=ORIENTED_EDGE('',*,*,#490,.F.);
#832=ORIENTED_EDGE('',*,*,#820,.T.);
#833=ORIENTED_EDGE('',*,*,#604,.T.);
#835=ORIENTED_EDGE('',*,*,#834,.F.);
#836=EDGE_LOOP('',(#831,#832,#833,#835));
#837=FACE_OUTER_BOUND('',#836,.F.);
#838=ADVANCED_FACE('',(#837),#830,.T.);
#839=CARTESIAN_POINT('',(1.461609946784E2,6.499200057983E1,1.946443545739E1));
#840=DIRECTION('',(-1.192487299576E-8,1.E0,0.E0));
#841=DIRECTION('',(4.371140766226E-8,0.E0,-1.E0));
#842=AXIS2_PLACEMENT_3D('',#839,#840,#841);
#843=PLANE('',#842);
#845=ORIENTED_EDGE('',*,*,#844,.F.);
#846=ORIENTED_EDGE('',*,*,#492,.F.);
#847=ORIENTED_EDGE('',*,*,#834,.T.);
#848=ORIENTED_EDGE('',*,*,#602,.T.);
#849=EDGE_LOOP('',(#845,#846,#847,#848));
#850=FACE_OUTER_BOUND('',#849,.F.);
#851=ADVANCED_FACE('',(#850),#843,.T.);
#852=CARTESIAN_POINT('',(1.499705966732E2,6.799200062526E1,1.218403539645E1));
#853=DIRECTION('',(-1.E0,-1.192487251820E-8,-4.371140773953E-8));
#854=DIRECTION('',(4.371140773953E-8,0.E0,-1.E0));
#855=AXIS2_PLACEMENT_3D('',#852,#853,#854);
#856=CYLINDRICAL_SURFACE('',#855,3.E0);
#858=ORIENTED_EDGE('',*,*,#857,.F.);
#859=ORIENTED_EDGE('',*,*,#494,.T.);
#860=ORIENTED_EDGE('',*,*,#844,.T.);
#861=ORIENTED_EDGE('',*,*,#600,.T.);
#862=EDGE_LOOP('',(#858,#859,#860,#861));
#863=FACE_OUTER_BOUND('',#862,.F.);
#864=ADVANCED_FACE('',(#863),#856,.F.);
#865=CARTESIAN_POINT('',(1.461609951278E2,6.499200057983E1,9.184035229928E0));
#866=DIRECTION('',(-4.371140766226E-8,0.E0,1.E0));
#867=DIRECTION('',(-1.192487299576E-8,1.E0,0.E0));
#868=AXIS2_PLACEMENT_3D('',#865,#866,#867);
#869=PLANE('',#868);
#871=ORIENTED_EDGE('',*,*,#870,.T.);
#872=ORIENTED_EDGE('',*,*,#496,.F.);
#873=ORIENTED_EDGE('',*,*,#857,.T.);
#874=ORIENTED_EDGE('',*,*,#598,.T.);
#875=EDGE_LOOP('',(#871,#872,#873,#874));
#876=FACE_OUTER_BOUND('',#875,.F.);
#877=ADVANCED_FACE('',(#876),#869,.T.);
#878=CARTESIAN_POINT('',(1.403513943649E2,7.199200088785E1,6.184034975982E0));
#879=DIRECTION('',(1.E0,1.192487251820E-8,4.371140764798E-8));
#880=DIRECTION('',(4.371140764798E-8,0.E0,-1.E0));
#881=AXIS2_PLACEMENT_3D('',#878,#879,#880);
#882=CYLINDRICAL_SURFACE('',#881,3.E0);
#883=ORIENTED_EDGE('',*,*,#498,.F.);
#884=ORIENTED_EDGE('',*,*,#870,.F.);
#885=ORIENTED_EDGE('',*,*,#596,.F.);
#887=ORIENTED_EDGE('',*,*,#886,.T.);
#888=EDGE_LOOP('',(#883,#884,#885,#887));
#889=FACE_OUTER_BOUND('',#888,.F.);
#890=ADVANCED_FACE('',(#889),#882,.T.);
#891=CARTESIAN_POINT('',(1.461609952708E2,7.499200095712E1,3.184035229928E0));
#892=DIRECTION('',(4.371140766226E-8,0.E0,-1.E0));
#893=DIRECTION('',(1.192487299576E-8,-1.E0,0.E0));
#894=AXIS2_PLACEMENT_3D('',#891,#892,#893);
#895=PLANE('',#894);
#896=ORIENTED_EDGE('',*,*,#886,.F.);
#897=ORIENTED_EDGE('',*,*,#594,.T.);
#899=ORIENTED_EDGE('',*,*,#898,.F.);
#900=ORIENTED_EDGE('',*,*,#500,.F.);
#901=EDGE_LOOP('',(#896,#897,#899,#900));
#902=FACE_OUTER_BOUND('',#901,.F.);
#903=ADVANCED_FACE('',(#902),#895,.T.);
#904=CARTESIAN_POINT('',(1.499705966732E2,6.799200062526E1,1.840353964508E-1));
#905=DIRECTION('',(-1.E0,-1.192487398307E-8,-4.371140764512E-8));
#906=DIRECTION('',(1.192487398307E-8,-1.E0,0.E0));
#907=AXIS2_PLACEMENT_3D('',#904,#905,#906);
#908=CYLINDRICAL_SURFACE('',#907,3.E0);
#910=ORIENTED_EDGE('',*,*,#909,.F.);
#911=ORIENTED_EDGE('',*,*,#502,.T.);
#912=ORIENTED_EDGE('',*,*,#898,.T.);
#913=ORIENTED_EDGE('',*,*,#592,.T.);
#914=EDGE_LOOP('',(#910,#911,#912,#913));
#915=FACE_OUTER_BOUND('',#914,.F.);
#916=ADVANCED_FACE('',(#915),#908,.F.);
#917=CARTESIAN_POINT('',(1.461609953901E2,6.499200057983E1,3.184035229928E0));
#918=DIRECTION('',(-1.192487299576E-8,1.E0,0.E0));
#919=DIRECTION('',(4.371140766226E-8,0.E0,-1.E0));
#920=AXIS2_PLACEMENT_3D('',#917,#918,#919);
#921=PLANE('',#920);
#922=ORIENTED_EDGE('',*,*,#909,.T.);
#923=ORIENTED_EDGE('',*,*,#590,.T.);
#925=ORIENTED_EDGE('',*,*,#924,.F.);
#926=ORIENTED_EDGE('',*,*,#504,.F.);
#927=EDGE_LOOP('',(#922,#923,#925,#926));
#928=FACE_OUTER_BOUND('',#927,.F.);
#929=ADVANCED_FACE('',(#928),#921,.T.);
#930=CARTESIAN_POINT('',(1.461609958395E2,6.499200057983E1,-7.096364997533E0));
#931=DIRECTION('',(4.371140766226E-8,0.E0,-1.E0));
#932=DIRECTION('',(1.192487299576E-8,-1.E0,0.E0));
#933=AXIS2_PLACEMENT_3D('',#930,#931,#932);
#934=PLANE('',#933);
#935=ORIENTED_EDGE('',*,*,#506,.F.);
#936=ORIENTED_EDGE('',*,*,#924,.T.);
#937=ORIENTED_EDGE('',*,*,#588,.T.);
#939=ORIENTED_EDGE('',*,*,#938,.F.);
#940=EDGE_LOOP('',(#935,#936,#937,#939));
#941=FACE_OUTER_BOUND('',#940,.F.);
#942=ADVANCED_FACE('',(#941),#934,.T.);
#943=CARTESIAN_POINT('',(1.461609963597E2,2.136800003052E1,-7.096364997533E0));
#944=DIRECTION('',(1.192487299576E-8,-1.E0,0.E0));
#945=DIRECTION('',(-4.371140766226E-8,0.E0,1.E0));
#946=AXIS2_PLACEMENT_3D('',#943,#944,#945);
#947=PLANE('',#946);
#949=ORIENTED_EDGE('',*,*,#948,.F.);
#950=ORIENTED_EDGE('',*,*,#508,.F.);
#951=ORIENTED_EDGE('',*,*,#938,.T.);
#952=ORIENTED_EDGE('',*,*,#586,.T.);
#953=EDGE_LOOP('',(#949,#950,#951,#952));
#954=FACE_OUTER_BOUND('',#953,.F.);
#955=ADVANCED_FACE('',(#954),#947,.T.);
#956=CARTESIAN_POINT('',(1.499705966732E2,1.836800007595E1,1.840353964508E-1));
#957=DIRECTION('',(-1.E0,-1.192487288442E-8,-4.371140770806E-8));
#958=DIRECTION('',(-4.371140770806E-8,0.E0,1.E0));
#959=AXIS2_PLACEMENT_3D('',#956,#957,#958);
#960=CYLINDRICAL_SURFACE('',#959,3.E0);
#962=ORIENTED_EDGE('',*,*,#961,.F.);
#963=ORIENTED_EDGE('',*,*,#510,.T.);
#964=ORIENTED_EDGE('',*,*,#948,.T.);
#965=ORIENTED_EDGE('',*,*,#584,.T.);
#966=EDGE_LOOP('',(#962,#963,#964,#965));
#967=FACE_OUTER_BOUND('',#966,.F.);
#968=ADVANCED_FACE('',(#967),#960,.F.);
#969=CARTESIAN_POINT('',(1.461609959103E2,2.136800003052E1,3.184035229928E0));
#970=DIRECTION('',(4.371140766226E-8,0.E0,-1.E0));
#971=DIRECTION('',(1.192487299576E-8,-1.E0,0.E0));
#972=AXIS2_PLACEMENT_3D('',#969,#970,#971);
#973=PLANE('',#972);
#974=ORIENTED_EDGE('',*,*,#782,.T.);
#975=ORIENTED_EDGE('',*,*,#512,.F.);
#976=ORIENTED_EDGE('',*,*,#961,.T.);
#977=ORIENTED_EDGE('',*,*,#582,.T.);
#978=EDGE_LOOP('',(#974,#975,#976,#977));
#979=FACE_OUTER_BOUND('',#978,.F.);
#980=ADVANCED_FACE('',(#979),#973,.T.);
#984=DIMENSIONAL_EXPONENTS(0.E0,0.E0,0.E0,0.E0,0.E0,0.E0,0.E0);
#986=PLANE_ANGLE_MEASURE_WITH_UNIT(PLANE_ANGLE_MEASURE(1.745329251994E-2),#985);
#987=(CONVERSION_BASED_UNIT('DEGREE',#986)NAMED_UNIT(*)PLANE_ANGLE_UNIT());
#989=UNCERTAINTY_MEASURE_WITH_UNIT(LENGTH_MEASURE(9.906E-3),#983,'closure',
'Maximum model space distance between geometric entities at asserted connectivities');
#990=(GEOMETRIC_REPRESENTATION_CONTEXT(3)GLOBAL_UNCERTAINTY_ASSIGNED_CONTEXT((
#989))GLOBAL_UNIT_ASSIGNED_CONTEXT((#983,#987,#988))REPRESENTATION_CONTEXT
('ID1','3'));
#992=APPLICATION_CONTEXT(
'CONFIGURATION CONTROLLED 3D DESIGNS OF MECHANICAL PARTS AND ASSEMBLIES');
#993=APPLICATION_PROTOCOL_DEFINITION('international standard',
'config_control_design',1994,#992);
#994=DESIGN_CONTEXT('',#992,'design');
#995=MECHANICAL_CONTEXT('',#992,'mechanical');
#996=PRODUCT('COVER','COVER','NOT SPECIFIED',(#995));
#997=PRODUCT_DEFINITION_FORMATION_WITH_SPECIFIED_SOURCE('3','LAST_VERSION',#996,
.MADE.);
#1001=PRODUCT_CATEGORY('part','');
#1002=PRODUCT_RELATED_PRODUCT_CATEGORY('detail','',(#996));
#1003=PRODUCT_CATEGORY_RELATIONSHIP('','',#1001,#1002);
#1004=SECURITY_CLASSIFICATION_LEVEL('unclassified');
#1005=SECURITY_CLASSIFICATION('','',#1004);
#1006=CC_DESIGN_SECURITY_CLASSIFICATION(#1005,(#997));
#1007=APPROVAL_STATUS('approved');
#1008=APPROVAL(#1007,'');
#1009=CC_DESIGN_APPROVAL(#1008,(#1005,#997,#998));
#1010=CALENDAR_DATE(123,1,8);
#1011=COORDINATED_UNIVERSAL_TIME_OFFSET(2,0,.AHEAD.);
#1012=LOCAL_TIME(14,12,3.5E1,#1011);
#1013=DATE_AND_TIME(#1010,#1012);
#1014=APPROVAL_DATE_TIME(#1013,#1008);
#1015=DATE_TIME_ROLE('creation_date');
#1016=CC_DESIGN_DATE_AND_TIME_ASSIGNMENT(#1013,#1015,(#998));
#1017=DATE_TIME_ROLE('classification_date');
#1018=CC_DESIGN_DATE_AND_TIME_ASSIGNMENT(#1013,#1017,(#1005));
#1019=PERSON('UNSPECIFIED','UNSPECIFIED',$,$,$,$);
#1020=ORGANIZATION('UNSPECIFIED','UNSPECIFIED','UNSPECIFIED');
#1021=PERSON_AND_ORGANIZATION(#1019,#1020);
#1022=APPROVAL_ROLE('approver');
#1023=APPROVAL_PERSON_ORGANIZATION(#1021,#1008,#1022);
#1024=PERSON_AND_ORGANIZATION_ROLE('creator');
#1025=CC_DESIGN_PERSON_AND_ORGANIZATION_ASSIGNMENT(#1021,#1024,(#997,#998));
#1026=PERSON_AND_ORGANIZATION_ROLE('design_supplier');
#1027=CC_DESIGN_PERSON_AND_ORGANIZATION_ASSIGNMENT(#1021,#1026,(#997));
#1028=PERSON_AND_ORGANIZATION_ROLE('classification_officer');
#1029=CC_DESIGN_PERSON_AND_ORGANIZATION_ASSIGNMENT(#1021,#1028,(#1005));
#1030=PERSON_AND_ORGANIZATION_ROLE('design_owner');
#1031=CC_DESIGN_PERSON_AND_ORGANIZATION_ASSIGNMENT(#1021,#1030,(#996));
#5=CIRCLE('',#4,1.65E0);
#10=CIRCLE('',#9,1.65E0);
#15=CIRCLE('',#14,1.65E0);
#20=CIRCLE('',#19,1.65E0);
#41=CIRCLE('',#40,3.E0);
#66=CIRCLE('',#65,3.E0);
#99=CIRCLE('',#98,1.65E0);
#104=CIRCLE('',#103,1.65E0);
#109=CIRCLE('',#108,1.65E0);
#114=CIRCLE('',#113,1.65E0);
#135=CIRCLE('',#134,3.E0);
#160=CIRCLE('',#159,3.E0);
#201=CIRCLE('',#200,3.E0);
#206=CIRCLE('',#205,3.E0);
#219=CIRCLE('',#218,3.E0);
#224=CIRCLE('',#223,3.E0);
#237=CIRCLE('',#236,3.E0);
#242=CIRCLE('',#241,3.E0);
#255=CIRCLE('',#254,3.E0);
#260=CIRCLE('',#259,3.E0);
#273=CIRCLE('',#272,3.E0);
#278=CIRCLE('',#277,3.E0);
#299=CIRCLE('',#298,3.E0);
#304=CIRCLE('',#303,3.E0);
#325=CIRCLE('',#324,3.E0);
#330=CIRCLE('',#329,3.E0);
#351=CIRCLE('',#350,3.E0);
#356=CIRCLE('',#355,3.E0);
#482=EDGE_CURVE('',#468,#466,#41,.T.);
#484=EDGE_CURVE('',#466,#419,#45,.T.);
#486=EDGE_CURVE('',#415,#419,#273,.T.);
#488=EDGE_CURVE('',#415,#375,#49,.T.);
#490=EDGE_CURVE('',#375,#376,#53,.T.);
#492=EDGE_CURVE('',#376,#411,#57,.T.);
#494=EDGE_CURVE('',#407,#411,#299,.T.);
#496=EDGE_CURVE('',#407,#471,#61,.T.);
#498=EDGE_CURVE('',#471,#472,#66,.T.);
#500=EDGE_CURVE('',#472,#403,#70,.T.);
#502=EDGE_CURVE('',#399,#403,#325,.T.);
#504=EDGE_CURVE('',#399,#379,#74,.T.);
#506=EDGE_CURVE('',#379,#380,#78,.T.);
#508=EDGE_CURVE('',#380,#427,#82,.T.);
#510=EDGE_CURVE('',#423,#427,#351,.T.);
#512=EDGE_CURVE('',#423,#468,#86,.T.);
#516=EDGE_CURVE('',#371,#372,#15,.T.);
#518=EDGE_CURVE('',#372,#371,#20,.T.);
#522=EDGE_CURVE('',#447,#435,#24,.T.);
#524=EDGE_CURVE('',#431,#435,#201,.T.);
#526=EDGE_CURVE('',#431,#459,#28,.T.);
#528=EDGE_CURVE('',#455,#459,#255,.T.);
#530=EDGE_CURVE('',#455,#443,#32,.T.);
#532=EDGE_CURVE('',#439,#443,#237,.T.);
#534=EDGE_CURVE('',#439,#451,#36,.T.);
#536=EDGE_CURVE('',#447,#451,#219,.T.);
#540=EDGE_CURVE('',#367,#368,#5,.T.);
#542=EDGE_CURVE('',#368,#367,#10,.T.);
#553=EDGE_CURVE('',#367,#383,#90,.T.);
#555=EDGE_CURVE('',#383,#384,#99,.T.);
#557=EDGE_CURVE('',#368,#384,#94,.T.);
#569=EDGE_CURVE('',#384,#383,#104,.T.);
#580=EDGE_CURVE('',#463,#464,#135,.T.);
#582=EDGE_CURVE('',#424,#464,#139,.T.);
#584=EDGE_CURVE('',#428,#424,#356,.T.);
#586=EDGE_CURVE('',#396,#428,#143,.T.);
#588=EDGE_CURVE('',#395,#396,#147,.T.);
#590=EDGE_CURVE('',#400,#395,#151,.T.);
#592=EDGE_CURVE('',#404,#400,#330,.T.);
#594=EDGE_CURVE('',#476,#404,#155,.T.);
#596=EDGE_CURVE('',#476,#474,#160,.T.);
#598=EDGE_CURVE('',#408,#474,#164,.T.);
#600=EDGE_CURVE('',#412,#408,#304,.T.);
#602=EDGE_CURVE('',#392,#412,#168,.T.);
#604=EDGE_CURVE('',#391,#392,#172,.T.);
#606=EDGE_CURVE('',#416,#391,#176,.T.);
#608=EDGE_CURVE('',#420,#416,#278,.T.);
#610=EDGE_CURVE('',#463,#420,#180,.T.);
#614=EDGE_CURVE('',#387,#388,#109,.T.);
#616=EDGE_CURVE('',#388,#387,#114,.T.);
#620=EDGE_CURVE('',#432,#460,#118,.T.);
#622=EDGE_CURVE('',#436,#432,#206,.T.);
#624=EDGE_CURVE('',#448,#436,#122,.T.);
#626=EDGE_CURVE('',#452,#448,#224,.T.);
#628=EDGE_CURVE('',#440,#452,#126,.T.);
#630=EDGE_CURVE('',#444,#440,#242,.T.);
#632=EDGE_CURVE('',#456,#444,#130,.T.);
#634=EDGE_CURVE('',#460,#456,#260,.T.);
#649=EDGE_CURVE('',#371,#387,#184,.T.);
#652=EDGE_CURVE('',#372,#388,#188,.T.);
#674=EDGE_CURVE('',#431,#432,#192,.T.);
#677=EDGE_CURVE('',#459,#460,#196,.T.);
#690=EDGE_CURVE('',#435,#436,#210,.T.);
#703=EDGE_CURVE('',#447,#448,#214,.T.);
#716=EDGE_CURVE('',#451,#452,#232,.T.);
#727=EDGE_CURVE('',#439,#440,#228,.T.);
#742=EDGE_CURVE('',#443,#444,#246,.T.);
#755=EDGE_CURVE('',#455,#456,#250,.T.);
#779=EDGE_CURVE('',#463,#466,#264,.T.);
#782=EDGE_CURVE('',#464,#468,#360,.T.);
#794=EDGE_CURVE('',#419,#420,#268,.T.);
#805=EDGE_CURVE('',#415,#416,#282,.T.);
#820=EDGE_CURVE('',#375,#391,#286,.T.);
#834=EDGE_CURVE('',#376,#392,#294,.T.);
#844=EDGE_CURVE('',#411,#412,#290,.T.);
#857=EDGE_CURVE('',#407,#408,#312,.T.);
#870=EDGE_CURVE('',#474,#471,#308,.T.);
#886=EDGE_CURVE('',#476,#472,#316,.T.);
#898=EDGE_CURVE('',#403,#404,#320,.T.);
#909=EDGE_CURVE('',#399,#400,#334,.T.);
#924=EDGE_CURVE('',#379,#395,#338,.T.);
#938=EDGE_CURVE('',#380,#396,#346,.T.);
#948=EDGE_CURVE('',#427,#428,#342,.T.);
#961=EDGE_CURVE('',#423,#424,#364,.T.);
#981=CLOSED_SHELL('',(#546,#561,#574,#642,#656,#668,#682,#695,#708,#721,#734,
#747,#760,#772,#786,#799,#812,#825,#838,#851,#864,#877,#890,#903,#916,#929,#942,
#955,#968,#980));
#982=MANIFOLD_SOLID_BREP('',#981);
#983=(LENGTH_UNIT()NAMED_UNIT(*)SI_UNIT(.MILLI.,.METRE.));
#985=(NAMED_UNIT(*)PLANE_ANGLE_UNIT()SI_UNIT($,.RADIAN.));
#988=(NAMED_UNIT(*)SI_UNIT($,.STERADIAN.)SOLID_ANGLE_UNIT());
#991=ADVANCED_BREP_SHAPE_REPRESENTATION('',(#982),#990);
#998=PRODUCT_DEFINITION('design','',#997,#994);
#999=PRODUCT_DEFINITION_SHAPE('','SHAPE FOR COVER.',#998);
#1000=SHAPE_DEFINITION_REPRESENTATION(#999,#991);
ENDSEC;
END-ISO-10303-21;
